<svg xmlns="http://www.w3.org/2000/svg" xmlns:xlink="http://www.w3.org/1999/xlink" xmlns:lucid="lucid" width="1718.38" height="1020"><g transform="translate(-60 -1360)" lucid:page-tab-id="0_0"><path d="M0 1258.83h1870.87v1322.84H0z" fill="#fff"/><path d="M840.43 1566a6 6 0 0 1 6-6h148a6 6 0 0 1 6 6v88a6 6 0 0 1-6 6h-148a6 6 0 0 1-6-6z" stroke="#3a414a" fill="#fff"/><use xlink:href="#a" transform="matrix(1,0,0,1,852.4330708661416,1572) translate(16.858024691358025 29.65277777777778)"/><use xlink:href="#b" transform="matrix(1,0,0,1,852.4330708661416,1572) translate(58.77160493827161 29.65277777777778)"/><use xlink:href="#c" transform="matrix(1,0,0,1,852.4330708661416,1572) translate(71.11728395061729 29.65277777777778)"/><use xlink:href="#d" transform="matrix(1,0,0,1,852.4330708661416,1572) translate(40.25308641975309 56.31944444444445)"/><path d="M950.43 1410c0 16.57-13.43 30-30 30s-30-13.43-30-30 13.43-30 30-30 30 13.43 30 30z" stroke="#3a414a" fill="#3a414a"/><path d="M920.43 1441v102.15" stroke="#3a414a" fill="none"/><path d="M920.42 1440.5l.5-.02v.53h-1v-.54z" stroke="#3a414a" stroke-width=".05" fill="#3a414a"/><path d="M920.43 1557.92l-4.63-14.27h9.27z" stroke="#3a414a" fill="#3a414a"/><path d="M839.47 1610.5H738.74l-.88.07-.84.2-.8.33-.74.45-.65.56-.56.67-.45.73-.33.8-.2.82-.08 148.03h-1l.07-148.15.23-1 .4-.95.53-.87.66-.78.78-.66.86-.53.95-.38 1-.24 1-.08h100.77z" stroke="#3a414a" stroke-width=".05" fill="#3a414a"/><path d="M839.97 1610.5h-.5v-1h.5z" fill="#3a414a"/><path d="M840 1610.53h-.57v-1.06h.56zm-.52-1v.94h.47v-.94z" stroke="#3a414a" stroke-width=".05" fill="#3a414a"/><path d="M732.72 1777.92l-4.64-14.27h9.27z" fill="#3a414a"/><path d="M732.72 1779.54l-5.33-16.4h10.64zm-3.95-15.4l3.95 12.16 3.94-12.15z" stroke="#3a414a" stroke-width=".05" fill="#3a414a"/><path d="M625 1786a6 6 0 0 1 6-6h203.43a6 6 0 0 1 6 6v108a6 6 0 0 1-6 6H631a6 6 0 0 1-6-6z" stroke="#3a414a" fill="#fff"/><use xlink:href="#e" transform="matrix(1,0,0,1,637,1792) translate(10.320987654320987 38.77777777777778)"/><use xlink:href="#f" transform="matrix(1,0,0,1,637,1792) translate(113.8395061728395 38.77777777777778)"/><use xlink:href="#g" transform="matrix(1,0,0,1,637,1792) translate(175.50617283950618 38.77777777777778)"/><use xlink:href="#h" transform="matrix(1,0,0,1,637,1792) translate(78.77777777777777 65.44444444444446)"/><path d="M1704.15 1579.66l1 .24.93.4.87.52.78.66.66.78.52.87.4.94.23 1 .08 258.06h-1l-.08-257.93-.2-.82-.32-.8-.45-.73-.56-.66-.66-.57-.74-.45-.8-.33-.83-.2-.9-.07h-701.73v-1h701.78z" stroke="#3a414a" stroke-width=".05" fill="#3a414a"/><path d="M1001.38 1580.58h-.5v-1h.5z" fill="#3a414a"/><path d="M1001.4 1580.6h-.55v-1.05h.56zm-.5-1v.95h.46v-.95z" stroke="#3a414a" stroke-width=".05" fill="#3a414a"/><path d="M1709.13 1857.9l-4.64-14.27h9.26z" fill="#3a414a"/><path d="M1709.13 1859.5l-5.33-16.37h10.65zm-3.95-15.37l3.95 12.15 3.95-12.15z" stroke="#3a414a" stroke-width=".05" fill="#3a414a"/><path d="M1580 1866a6 6 0 0 1 6-6h148a6 6 0 0 1 6 6v88a6 6 0 0 1-6 6h-148a6 6 0 0 1-6-6z" stroke="#3a414a" fill="#fff"/><use xlink:href="#i" transform="matrix(1,0,0,1,1592,1872) translate(5.6851851851851904 29.65277777777778)"/><use xlink:href="#f" transform="matrix(1,0,0,1,1592,1872) translate(62.47530864197531 29.65277777777778)"/><use xlink:href="#g" transform="matrix(1,0,0,1,1592,1872) translate(124.14197530864197 29.65277777777778)"/><use xlink:href="#h" transform="matrix(1,0,0,1,1592,1872) translate(50.77777777777778 56.31944444444445)"/><path d="M920.93 1733.98l.07.88.2.84.33.8.45.73.57.66.65.55.74.45.8.33.8.2 448.48.07 1 .08 1 .24.93.4.87.52.78.66.66.78.53.87.38.94.25 1 .07 78.15h-1l-.07-78.03-.2-.82-.33-.8-.45-.73-.56-.66-.67-.55-.73-.45-.8-.33-.84-.2-.88-.07-448.54-.07-1.02-.25-.94-.4-.87-.52-.76-.66-.67-.78-.53-.87-.4-.94-.23-.98-.07-1v-73.06h1z" stroke="#3a414a" stroke-width=".05" fill="#3a414a"/><path d="M920.93 1660.98h-1v-.52h1z" fill="#3a414a"/><path d="M920.96 1661h-1.05v-.56h1.06zm-1-.5v.45h.95v-.46z" stroke="#3a414a" stroke-width=".05" fill="#3a414a"/><path d="M1380 1837.92l-4.64-14.27h9.28z" fill="#3a414a"/><path d="M1380 1839.54l-5.32-16.4h10.64zm-3.95-15.4l3.95 12.16 3.95-12.15z" stroke="#3a414a" stroke-width=".05" fill="#3a414a"/><path d="M1300 1846a6 6 0 0 1 6-6h148a6 6 0 0 1 6 6v108a6 6 0 0 1-6 6h-148a6 6 0 0 1-6-6z" stroke="#3a414a" fill="#fff"/><use xlink:href="#j" transform="matrix(1,0,0,1,1312,1852) translate(2.0432098765432016 38.77777777777778)"/><use xlink:href="#k" transform="matrix(1,0,0,1,1312,1852) translate(62.413580246913575 38.77777777777778)"/><use xlink:href="#f" transform="matrix(1,0,0,1,1312,1852) translate(13.771604938271608 65.44444444444446)"/><use xlink:href="#b" transform="matrix(1,0,0,1,1312,1852) translate(75.43827160493828 65.44444444444446)"/><use xlink:href="#h" transform="matrix(1,0,0,1,1312,1852) translate(87.78395061728395 65.44444444444446)"/><path d="M788.35 1779.02h-1v-46.08h1zm35.26-142.58l-30.63.07-.82.2-.8.34-.74.45-.64.55-.56.66-.45.74-.33.8-.2.84-.07.88v69.64h-1v-69.68l.07-1 .24-1 .4-.93.53-.88.65-.78.77-.66.87-.53.94-.4 1-.24 30.77-.06z" stroke="#3a414a" stroke-width=".05" fill="#3a414a"/><path d="M788.35 1779.52h-1v-.52h1z" fill="#3a414a"/><path d="M788.37 1779.54h-1.05v-.56h1.05zm-1-.5v.45h.95v-.47z" stroke="#3a414a" stroke-width=".05" fill="#3a414a"/><path d="M838.37 1635.94l-14.26 4.64v-9.28z" fill="#3a414a"/><path d="M840 1635.94l-16.4 5.32v-10.64zm-15.4 3.95l12.16-3.96-12.15-3.95z" stroke="#3a414a" stroke-width=".05" fill="#3a414a"/><use xlink:href="#l" transform="matrix(1,0,0,1,767.6237449075851,1711.6047614552997) translate(0 14.222222222222223)"/><path d="M1427.18 1699.57l1 .25.95.4.87.52.77.66.67.78.53.87.4.94.23.98.08 1V1839h-1v-132.98l-.07-.88-.2-.84-.32-.8-.45-.73-.56-.66-.66-.55-.73-.45-.8-.33-.8-.2-314.7-.05v-1zm-454-4.7l.2.83.33.8.46.73.56.66.66.55.73.45.8.33.85.2.88.07 93.3.02v1l-93.34-.02-1-.08-1-.24-.94-.4-.87-.52-.8-.66-.65-.78-.53-.87-.4-.94-.24-1-.07-18.18h1z" stroke="#3a414a" stroke-width=".05" fill="#3a414a"/><path d="M1432.68 1839.5h-1v-.5h1z" fill="#3a414a"/><path d="M1432.7 1839.54h-1.05v-.57h1.05zm-1-.52v.47h.95v-.48z" stroke="#3a414a" stroke-width=".05" fill="#3a414a"/><path d="M977.25 1676.32h-9.27l4.63-14.26z" fill="#3a414a"/><path d="M977.93 1676.82H967.3l5.3-16.38zm-9.27-1h7.9l-3.95-12.15z" stroke="#3a414a" stroke-width=".05" fill="#3a414a"/><use xlink:href="#l" transform="matrix(1,0,0,1,1071.937612344778,1689.3333333333333) translate(0 14.222222222222223)"/><path d="M1614.43 1859.06h-1v-155.62h1zm-5.5-233.8l1 .23.95.38.87.53.78.68.66.77.53.87.4.95.22 1 .08.98v50.46h-1v-50.4l-.07-.9-.2-.82-.33-.8-.45-.74-.56-.65-.66-.57-.73-.46-.8-.33-.82-.2-591.5-.07v-1z" stroke="#3a414a" stroke-width=".05" fill="#3a414a"/><path d="M1614.43 1859.56h-1v-.5h1z" fill="#3a414a"/><path d="M1614.46 1859.58h-1.05v-.56h1.06zm-1-.5v.45h.95v-.46z" stroke="#3a414a" stroke-width=".05" fill="#3a414a"/><path d="M1016.8 1630.3l-14.27-4.63 14.26-4.63z" fill="#3a414a"/><path d="M1017.3 1631l-16.4-5.33 16.4-5.32zm-13.15-5.33l12.14 3.95v-7.9z" stroke="#3a414a" stroke-width=".05" fill="#3a414a"/><use xlink:href="#l" transform="matrix(1,0,0,1,1593.7101882911336,1682.1091557692257) translate(0 14.222222222222223)"/><path d="M631.28 1639.57l1 .25.95.4.87.52.78.66.66.78.53.87.4.94.23.98.08 1v133.1h-1V1646l-.07-.88-.2-.84-.32-.8-.45-.73-.56-.66-.66-.55-.72-.45-.8-.33-.82-.2h-37.3v-1zm-102.5-.04v1l-71.93-.03v-1z" stroke="#3a414a" stroke-width=".05" fill="#3a414a"/><path d="M636.78 1779.57h-1v-.5h1z" fill="#3a414a"/><path d="M636.8 1779.6h-1.05v-.57h1.05zm-1-.52v.47h.95v-.47z" stroke="#3a414a" stroke-width=".05" fill="#3a414a"/><path d="M456.35 1644.64l-14.27-4.64 14.27-4.64z" fill="#3a414a"/><path d="M456.85 1645.32l-16.4-5.32 16.4-5.32zM443.7 1640l12.15 3.95v-7.9z" stroke="#3a414a" stroke-width=".05" fill="#3a414a"/><use xlink:href="#m" transform="matrix(1,0,0,1,528.7689789551391,1608) translate(6.400061728395066 14.222222222222223)"/><use xlink:href="#n" transform="matrix(1,0,0,1,528.7689789551391,1608) translate(0.005000000000002558 35.55555555555556)"/><use xlink:href="#o" transform="matrix(1,0,0,1,528.7689789551391,1608) translate(11.832160493827168 56.88888888888889)"/><path d="M280 1586a6 6 0 0 1 6-6h148a6 6 0 0 1 6 6v108a6 6 0 0 1-6 6H286a6 6 0 0 1-6-6z" stroke="#3a414a" fill="#fff"/><use xlink:href="#p" transform="matrix(1,0,0,1,292,1592) translate(3.925925925925924 26.77777777777778)"/><use xlink:href="#q" transform="matrix(1,0,0,1,292,1592) translate(82.75308641975307 26.77777777777778)"/><use xlink:href="#r" transform="matrix(1,0,0,1,292,1592) translate(13.185185185185176 53.44444444444445)"/><use xlink:href="#d" transform="matrix(1,0,0,1,292,1592) translate(40.25308641975309 80.11111111111111)"/><path d="M348.56 1960.48l-102.54.02-.88.07-.84.2-.8.33-.73.45-.66.56-.55.67-.45.73-.33.8-.2.82-.07 38.03h-1l.07-38.15.25-1 .4-.95.52-.87.66-.78.78-.66.87-.53.94-.38.98-.24 1-.08 102.58-.02zm298.53-6.46l-.1 1-.23 1-.4.93-.52.87-.66.78-.8.66-.86.53-.94.38-1 .25-103.6.02v-1l103.47-.02.82-.2.8-.33.72-.45.66-.56.56-.67.45-.73.32-.8.2-.84.07-.88v-53h1z" stroke="#3a414a" stroke-width=".05" fill="#3a414a"/><path d="M647.1 1901h-1v-.5h1z" fill="#3a414a"/><path d="M647.1 1901.03h-1.04v-.56h1.05zm-1-.5v.45h.96v-.46z" stroke="#3a414a" stroke-width=".05" fill="#3a414a"/><path d="M240 2017.92l-4.64-14.27h9.28z" fill="#3a414a"/><path d="M240 2019.54l-5.32-16.4h10.64zm-3.95-15.4l3.95 12.16 3.95-12.15z" stroke="#3a414a" stroke-width=".05" fill="#3a414a"/><use xlink:href="#s" transform="matrix(1,0,0,1,348.56303561855134,1949.3333333333333) translate(0 14.222222222222223)"/><use xlink:href="#t" transform="matrix(1,0,0,1,348.56303561855134,1949.3333333333333) translate(57.23456790123458 14.222222222222223)"/><use xlink:href="#u" transform="matrix(1,0,0,1,348.56303561855134,1949.3333333333333) translate(127.2592592592593 14.222222222222223)"/><path d="M160 2026a6 6 0 0 1 6-6h148a6 6 0 0 1 6 6v108a6 6 0 0 1-6 6H166a6 6 0 0 1-6-6z" stroke="#3a414a" fill="#fff"/><use xlink:href="#v" transform="matrix(1,0,0,1,172,2032) translate(31.672839506172842 26.77777777777778)"/><use xlink:href="#w" transform="matrix(1,0,0,1,172,2032) translate(15.623456790123456 53.44444444444445)"/><use xlink:href="#x" transform="matrix(1,0,0,1,172,2032) translate(82.16666666666666 53.44444444444445)"/><use xlink:href="#y" transform="matrix(1,0,0,1,172,2032) translate(45.839506172839506 80.11111111111111)"/><path d="M326.53 1848.14h-69.68v-1h69.68zm297.5-1.9H538.5v-1h85.56z" stroke="#3a414a" stroke-width=".05" fill="#3a414a"/><path d="M624.54 1846.23h-.5v-1h.5z" fill="#3a414a"/><path d="M624.57 1846.25H624v-1.05h.57zm-.52-1v.95h.47v-.95z" stroke="#3a414a" stroke-width=".05" fill="#3a414a"/><path d="M256.35 1852.28l-14.26-4.63 14.25-4.64z" fill="#3a414a"/><path d="M256.85 1852.97l-16.38-5.32 16.38-5.32zm-13.15-5.32l12.15 3.95v-7.9z" stroke="#3a414a" stroke-width=".05" fill="#3a414a"/><use xlink:href="#s" transform="matrix(1,0,0,1,326.5292321867273,1836.0221512736205) translate(0 14.222222222222223)"/><use xlink:href="#z" transform="matrix(1,0,0,1,326.5292321867273,1836.0221512736205) translate(57.23456790123458 14.222222222222223)"/><use xlink:href="#A" transform="matrix(1,0,0,1,326.5292321867273,1836.0221512736205) translate(114.46913580246915 14.222222222222223)"/><path d="M80 1786a6 6 0 0 1 6-6h148a6 6 0 0 1 6 6v108a6 6 0 0 1-6 6H86a6 6 0 0 1-6-6z" stroke="#3a414a" fill="#fff"/><use xlink:href="#B" transform="matrix(1,0,0,1,92,1792) translate(3.925925925925924 26.77777777777778)"/><use xlink:href="#C" transform="matrix(1,0,0,1,92,1792) translate(70.4074074074074 26.77777777777778)"/><use xlink:href="#D" transform="matrix(1,0,0,1,92,1792) translate(11.888888888888893 53.44444444444445)"/><use xlink:href="#y" transform="matrix(1,0,0,1,92,1792) translate(45.839506172839506 80.11111111111111)"/><path d="M527.53 2070.48l-75.26.02-.88.07-.85.2-.8.33-.73.45-.66.56-.56.67-.45.73-.33.8-.2.82-.07 128.03h-1l.07-128.15.25-1 .4-.95.52-.87.65-.78.78-.66.87-.53.94-.38 1-.24 1-.08 75.3-.02zm205.7-6.46l-.1 1-.23 1-.4.93-.52.87-.67.78-.76.66-.87.53-.94.38-1.02.25h-56.27v-1h56.17l.82-.2.8-.33.73-.45.65-.56.56-.67.46-.73.33-.8.2-.84.07-.88v-163.02h1z" stroke="#3a414a" stroke-width=".05" fill="#3a414a"/><path d="M733.22 1900.98h-1v-.52h1z" fill="#3a414a"/><path d="M733.24 1901h-1.05v-.56h1.04zm-1-.5v.45h.95v-.46z" stroke="#3a414a" stroke-width=".05" fill="#3a414a"/><path d="M446.25 2217.92l-4.64-14.27h9.3z" fill="#3a414a"/><path d="M446.25 2219.54l-5.32-16.4h10.64zm-3.95-15.4l3.95 12.16 3.95-12.15z" stroke="#3a414a" stroke-width=".05" fill="#3a414a"/><use xlink:href="#s" transform="matrix(1,0,0,1,527.5326820501464,2048.6666666666665) translate(22.622283950617273 14.222222222222223)"/><use xlink:href="#E" transform="matrix(1,0,0,1,527.5326820501464,2048.6666666666665) translate(79.85685185185184 14.222222222222223)"/><use xlink:href="#F" transform="matrix(1,0,0,1,527.5326820501464,2048.6666666666665) translate(0.0049999999999954525 35.55555555555556)"/><use xlink:href="#G" transform="matrix(1,0,0,1,527.5326820501464,2048.6666666666665) translate(67.01734567901235 35.55555555555556)"/><path d="M366.25 2226a6 6 0 0 1 6-6h148a6 6 0 0 1 6 6v108a6 6 0 0 1-6 6h-148a6 6 0 0 1-6-6z" stroke="#3a414a" fill="#fff"/><use xlink:href="#p" transform="matrix(1,0,0,1,378.25,2232) translate(3.925925925925924 26.77777777777778)"/><use xlink:href="#q" transform="matrix(1,0,0,1,378.25,2232) translate(82.75308641975307 26.77777777777778)"/><use xlink:href="#k" transform="matrix(1,0,0,1,378.25,2232) translate(32.22839506172839 53.44444444444445)"/><use xlink:href="#H" transform="matrix(1,0,0,1,378.25,2232) translate(24.234567901234563 80.11111111111111)"/><path d="M820.66 2243.15h-1v-176.98h1zm0-240.98h-1v-101.24h1z" stroke="#3a414a" stroke-width=".05" fill="#3a414a"/><path d="M820.66 1900.94h-1v-.5h1z" fill="#3a414a"/><path d="M820.68 1900.97h-1.05v-.56h1.05zm-1-.5v.45h.95v-.46z" stroke="#3a414a" stroke-width=".05" fill="#3a414a"/><path d="M820.16 2257.9l-4.64-14.25h9.27z" fill="#3a414a"/><path d="M820.16 2259.53l-5.33-16.38h10.65zm-3.95-15.38l3.96 12.14 3.94-12.15z" stroke="#3a414a" stroke-width=".05" fill="#3a414a"/><use xlink:href="#m" transform="matrix(1,0,0,1,789.1190064440075,2002.1701540964664) translate(0 14.222222222222223)"/><use xlink:href="#I" transform="matrix(1,0,0,1,789.1190064440075,2002.1701540964664) translate(0 35.55555555555556)"/><use xlink:href="#J" transform="matrix(1,0,0,1,789.1190064440075,2002.1701540964664) translate(0 56.88888888888889)"/><path d="M690 2266a6 6 0 0 1 6-6h218a6 6 0 0 1 6 6v68a6 6 0 0 1-6 6H696a6 6 0 0 1-6-6z" stroke="#3a414a" fill="#fff"/><use xlink:href="#p" transform="matrix(1,0,0,1,702,2272) translate(41.98148148148149 21.27777777777778)"/><use xlink:href="#K" transform="matrix(1,0,0,1,702,2272) translate(120.80864197530863 21.27777777777778)"/><use xlink:href="#H" transform="matrix(1,0,0,1,702,2272) translate(59.23456790123456 47.94444444444444)"/><path d="M1013 2223.17h-1l-.06-276.9h1zm-5.5-394.82l1 .24.94.38.87.53.8.68.65.77.53.87.4.94.23 1.02.02 48.5h-1v-48.4l-.2-.8-.33-.8-.46-.74-.56-.65-.66-.58-.73-.45-.8-.33-.85-.2-.88-.07H841.4v-1h165.1z" stroke="#3a414a" stroke-width=".05" fill="#3a414a"/><path d="M841.4 1829.27h-.5v-1h.5z" fill="#3a414a"/><path d="M841.43 1829.3h-.57v-1.05h.57zm-.52-1v.95h.48v-.95z" stroke="#3a414a" stroke-width=".05" fill="#3a414a"/><path d="M1012.5 2237.93l-4.65-14.26h9.27z" fill="#3a414a"/><path d="M1012.5 2239.55l-5.33-16.38h10.64zm-3.96-15.38l3.95 12.14 3.94-12.13z" stroke="#3a414a" stroke-width=".05" fill="#3a414a"/><use xlink:href="#L" transform="matrix(1,0,0,1,981.4517683722329,1882.2781693224892) translate(4.893888888888888 14.222222222222223)"/><use xlink:href="#I" transform="matrix(1,0,0,1,981.4517683722329,1882.2781693224892) translate(0.004999999999999005 35.55555555555556)"/><use xlink:href="#M" transform="matrix(1,0,0,1,981.4517683722329,1882.2781693224892) translate(1.955617283950616 56.88888888888889)"/><path d="M960 2246a6 6 0 0 1 6-6h148a6 6 0 0 1 6 6v108a6 6 0 0 1-6 6H966a6 6 0 0 1-6-6z" stroke="#3a414a" fill="#fff"/><use xlink:href="#v" transform="matrix(1,0,0,1,972,2252) translate(31.672839506172842 26.77777777777778)"/><use xlink:href="#N" transform="matrix(1,0,0,1,972,2252) translate(35.34567901234568 53.44444444444445)"/><use xlink:href="#O" transform="matrix(1,0,0,1,972,2252) translate(10.098765432098766 80.11111111111111)"/><use xlink:href="#y" transform="matrix(1,0,0,1,972,2252) translate(81.58024691358025 80.11111111111111)"/><path d="M574.02 1739.96l1 .08 1 .24.93.4.87.52.78.67.66.77.53.87.38.95.25 1.02.07 44.63.07.88.2.84.33.8.45.73.56.66.67.57.73.45.8.33.82.2 23 .07v1l-23.12-.07-1-.24-.95-.38-.87-.54-.78-.66-.66-.78-.53-.87-.38-.94-.24-1-.08-1-.07-44.55-.2-.82-.33-.8-.45-.73-.56-.65-.67-.57-.73-.44-.8-.33-.84-.2-.88-.07h-24.64v-1zm-213.52-5.52l.07.88.2.84.33.8.45.74.56.65.67.56.73.46.8.33.82.2 85.7.02v1l-85.82-.03-1-.25-.95-.4-.87-.53-.78-.66-.66-.78-.53-.87-.38-.93-.24-1-.08-1v-33.5h1z" stroke="#3a414a" stroke-width=".05" fill="#3a414a"/><path d="M360.5 1700.98h-1v-.52h1z" fill="#3a414a"/><path d="M360.52 1701h-1.04v-.56h1.04zm-1-.5v.45h.96v-.46z" stroke="#3a414a" stroke-width=".05" fill="#3a414a"/><path d="M622.9 1796.12l-14.28 4.64v-9.27z" fill="#3a414a"/><path d="M624.5 1796.12l-16.38 5.33v-10.65zm-15.38 3.95l12.15-3.95-12.15-3.94z" stroke="#3a414a" stroke-width=".05" fill="#3a414a"/><use xlink:href="#P" transform="matrix(1,0,0,1,450.82395168596634,1719.1299222582595) translate(8.869197530864206 14.222222222222223)"/><use xlink:href="#Q" transform="matrix(1,0,0,1,450.82395168596634,1719.1299222582595) translate(48.22722222222223 14.222222222222223)"/><use xlink:href="#R" transform="matrix(1,0,0,1,450.82395168596634,1719.1299222582595) translate(0.005000000000002558 35.55555555555556)"/><use xlink:href="#S" transform="matrix(1,0,0,1,450.82395168596634,1719.1299222582595) translate(21.634629629629632 35.55555555555556)"/><path d="M353.7 1883.48H241v-1h112.7zm254.47-10.8l-96.83.05v-1l96.83-.04z" stroke="#3a414a" stroke-width=".05" fill="#3a414a"/><path d="M241 1883.48h-.5v-1h.5z" fill="#3a414a"/><path d="M241.03 1883.5h-.56v-1.04h.56zm-.5-1v.96h.45v-.95z" stroke="#3a414a" stroke-width=".05" fill="#3a414a"/><path d="M622.94 1872.2l-14.27 4.63v-9.27z" fill="#3a414a"/><path d="M624.56 1872.2l-16.4 5.32v-10.65zm-15.4 3.94l12.16-3.95-12.15-3.95z" stroke="#3a414a" stroke-width=".05" fill="#3a414a"/><use xlink:href="#T" transform="matrix(1,0,0,1,353.7107024576782,1866.9212718398112) translate(0 14.222222222222223)"/><use xlink:href="#U" transform="matrix(1,0,0,1,353.7107024576782,1866.9212718398112) translate(60.14814814814816 14.222222222222223)"/><path d="M377.42 2000.56h-86.37l-.82.2-.8.34-.73.45-.66.56-.56.67-.45.73-.33.8-.2.84-.07.88v13h-1v-13.04l.08-1 .25-1 .4-.93.52-.87.66-.78.78-.66.88-.53.94-.38 1-.25h86.5zm298.37-83.7l-.08 78.14-.25 1-.4.95-.52.87-.66.78-.8.66-.86.53-.94.38-1 .24-1 .08-96.77.02v-1l96.74-.02.88-.07.84-.2.8-.33.72-.45.66-.56.56-.67.45-.73.32-.8.2-.82.07-78z" stroke="#3a414a" stroke-width=".05" fill="#3a414a"/><path d="M286.43 2019.5h-1v-.5h1z" fill="#3a414a"/><path d="M286.45 2019.54h-1.05v-.56h1.05zm-1-.5v.45h.95v-.47z" stroke="#3a414a" stroke-width=".05" fill="#3a414a"/><path d="M679.93 1916.37h-9.27l4.63-14.27z" fill="#3a414a"/><path d="M680.6 1916.87h-10.63l5.32-16.4zm-9.26-1h7.9l-3.95-12.15z" stroke="#3a414a" stroke-width=".05" fill="#3a414a"/><use xlink:href="#P" transform="matrix(1,0,0,1,377.4201943966315,1989.3333333333333) translate(0 14.222222222222223)"/><use xlink:href="#V" transform="matrix(1,0,0,1,377.4201943966315,1989.3333333333333) translate(39.358024691358025 14.222222222222223)"/><use xlink:href="#W" transform="matrix(1,0,0,1,377.4201943966315,1989.3333333333333) translate(96.59259259259261 14.222222222222223)"/><use xlink:href="#X" transform="matrix(1,0,0,1,377.4201943966315,1989.3333333333333) translate(118.22222222222224 14.222222222222223)"/><path d="M571.16 2140.55l-71.4.02-.8.2-.8.33-.74.45-.66.56-.56.67-.45.73-.33.8-.2.84-.07.88v73h-1v-73.04l.08-1 .24-1 .4-.93.52-.87.65-.78.78-.66.87-.53.94-.38 1-.25 71.52-.02zm197.44-223.72l-.08 218.17-.24 1-.4.95-.52.87-.67.78-.78.66-.87.53-.95.38-1 .24-.98.08h-43.16v-1h43.12l.88-.07.83-.2.8-.33.73-.45.65-.56.56-.67.45-.73.32-.8.2-.82.08-218.05z" stroke="#3a414a" stroke-width=".05" fill="#3a414a"/><path d="M495.15 2219.5h-1v-.5h1z" fill="#3a414a"/><path d="M495.18 2219.54h-1.05v-.57h1.05zm-1-.52v.47h.95v-.48z" stroke="#3a414a" stroke-width=".05" fill="#3a414a"/><path d="M772.73 1916.33h-9.27l4.64-14.26z" fill="#3a414a"/><path d="M773.42 1916.83h-10.65l5.33-16.38zm-9.27-1h7.9l-3.95-12.14z" stroke="#3a414a" stroke-width=".05" fill="#3a414a"/><g><use xlink:href="#P" transform="matrix(1,0,0,1,571.158443680047,2118.6666666666665) translate(0 14.222222222222223)"/><use xlink:href="#Y" transform="matrix(1,0,0,1,571.158443680047,2118.6666666666665) translate(39.358024691358025 14.222222222222223)"/><use xlink:href="#Z" transform="matrix(1,0,0,1,571.158443680047,2118.6666666666665) translate(85.7283950617284 14.222222222222223)"/><use xlink:href="#aa" transform="matrix(1,0,0,1,571.158443680047,2118.6666666666665) translate(0 35.55555555555556)"/><use xlink:href="#ab" transform="matrix(1,0,0,1,571.158443680047,2118.6666666666665) translate(37.382716049382715 35.55555555555556)"/><use xlink:href="#X" transform="matrix(1,0,0,1,571.158443680047,2118.6666666666665) translate(59.01234567901234 35.55555555555556)"/></g><path d="M885 2259h-1v-82.9h1zm-5.5-384.05l1 .25.96.4.87.52.77.66.66.78.54.87.4.94.23 1 .07 1v209.4h-1V1881.4l-.07-.88-.2-.84-.33-.8-.45-.73-.56-.66-.66-.57-.74-.45-.8-.33-.82-.2-22.08-.07v-1z" stroke="#3a414a" stroke-width=".05" fill="#3a414a"/><path d="M885 2259.5h-1v-.5h1z" fill="#3a414a"/><path d="M885.03 2259.53h-1.05v-.56h1.05zm-1-.5v.46l.95-.02v-.46z" stroke="#3a414a" stroke-width=".05" fill="#3a414a"/><path d="M856.8 1880l-14.26-4.62 14.26-4.64z" fill="#3a414a"/><path d="M857.3 1880.7l-16.38-5.32 16.38-5.32zm-13.14-5.32l12.14 3.95v-7.9z" stroke="#3a414a" stroke-width=".05" fill="#3a414a"/><g><use xlink:href="#ac" transform="matrix(1,0,0,1,853.911621517339,2090.757202588863) translate(0.572901234567901 14.222222222222223)"/><use xlink:href="#ad" transform="matrix(1,0,0,1,853.911621517339,2090.757202588863) translate(7.437098765432097 35.55555555555556)"/><use xlink:href="#ae" transform="matrix(1,0,0,1,853.911621517339,2090.757202588863) translate(22.72104938271605 56.88888888888889)"/><use xlink:href="#af" transform="matrix(1,0,0,1,853.911621517339,2090.757202588863) translate(0.004999999999999005 78.22222222222223)"/></g><path d="M1086.2 2239h-1v-171.77h1zm-5.5-436.3l1 .25.95.4.87.52.77.67.65.77.54.88.38.95.24 1 .07.98v194.13h-1v-194.08l-.08-.88-.2-.83-.33-.8-.46-.74-.56-.65-.65-.56-.74-.46-.8-.33-.83-.2-223.3-.07v-1z" stroke="#3a414a" stroke-width=".05" fill="#3a414a"/><path d="M1086.2 2239.5h-1v-.5h1z" fill="#3a414a"/><path d="M1086.22 2239.54h-1.05v-.56h1.05zm-1-.5v.45h.95v-.47z" stroke="#3a414a" stroke-width=".05" fill="#3a414a"/><path d="M856.76 1807.77l-14.27-4.64 14.26-4.63z" fill="#3a414a"/><path d="M857.26 1808.46l-16.4-5.33 16.4-5.32zm-13.15-5.33l12.16 3.95v-7.9z" stroke="#3a414a" stroke-width=".05" fill="#3a414a"/><g><use xlink:href="#ac" transform="matrix(1,0,0,1,1046.2619450168752,2003.2280318646626) translate(9.41240740740741 14.222222222222223)"/><use xlink:href="#ag" transform="matrix(1,0,0,1,1046.2619450168752,2003.2280318646626) translate(0.005000000000002558 35.55555555555556)"/><use xlink:href="#ah" transform="matrix(1,0,0,1,1046.2619450168752,2003.2280318646626) translate(63.116111111111124 35.55555555555556)"/><use xlink:href="#ai" transform="matrix(1,0,0,1,1046.2619450168752,2003.2280318646626) translate(0.9926543209876542 56.88888888888889)"/></g><path d="M1269.7 2183.17h-1v-77.57h1zm29.34-282.67h-23.83l-.87.07-.84.2-.8.33-.74.45-.66.56-.56.67-.45.73-.34.8-.2.82-.03 136.48h-1l.03-136.6.25-1 .4-.95.53-.87.66-.78.77-.66.87-.53.94-.38 1-.24 1-.08h23.86z" stroke="#3a414a" stroke-width=".05" fill="#3a414a"/><path d="M1299.54 1900.5h-.52v-1h.52z" fill="#3a414a"/><path d="M1299.56 1900.53h-.56v-1.06h.56zm-.5-1v.94h.45v-.94z" stroke="#3a414a" stroke-width=".05" fill="#3a414a"/><path d="M1269.2 2197.94l-4.64-14.27h9.27z" fill="#3a414a"/><path d="M1269.2 2199.55l-5.33-16.38h10.64zm-3.96-15.38l3.95 12.15 3.94-12.15z" stroke="#3a414a" stroke-width=".05" fill="#3a414a"/><g><use xlink:href="#aj" transform="matrix(1,0,0,1,1220.4253630298124,2041.6005384516402) translate(12.276604938271603 14.222222222222223)"/><use xlink:href="#ak" transform="matrix(1,0,0,1,1220.4253630298124,2041.6005384516402) translate(24.62228395061728 35.55555555555556)"/><use xlink:href="#al" transform="matrix(1,0,0,1,1220.4253630298124,2041.6005384516402) translate(0.005000000000002558 56.88888888888889)"/></g><path d="M1207.93 2206a6 6 0 0 1 6-6h208a6 6 0 0 1 6 6v73.33a6 6 0 0 1-6 6h-208a6 6 0 0 1-6-6z" stroke="#3a414a" fill="#fff"/><g><use xlink:href="#p" transform="matrix(1,0,0,1,1219.9330708661419,2212) translate(21.611111111111114 21.65277777777778)"/><use xlink:href="#am" transform="matrix(1,0,0,1,1219.9330708661419,2212) translate(100.43827160493827 21.65277777777778)"/><use xlink:href="#an" transform="matrix(1,0,0,1,1219.9330708661419,2212) translate(17.938271604938265 48.31944444444444)"/><use xlink:href="#y" transform="matrix(1,0,0,1,1219.9330708661419,2212) translate(133.74074074074076 48.31944444444444)"/></g><path d="M1402.58 2199h-1v-97.7h1zm0-140.35h-1v-81.8h1z" stroke="#3a414a" stroke-width=".05" fill="#3a414a"/><path d="M1402.58 2199.5h-1v-.5h1z" fill="#3a414a"/><path d="M1402.6 2199.53h-1.05v-.56h1.05zm-1-.5v.45h.95v-.46z" stroke="#3a414a" stroke-width=".05" fill="#3a414a"/><path d="M1406.7 1976.34h-9.26l4.64-14.27z" fill="#3a414a"/><path d="M1407.4 1976.84h-10.65l5.33-16.4zm-9.27-1h7.9l-3.95-12.15z" stroke="#3a414a" stroke-width=".05" fill="#3a414a"/><g><use xlink:href="#P" transform="matrix(1,0,0,1,1352.8192018986424,2058.6463267768677) translate(0.4988271604938319 14.222222222222223)"/><use xlink:href="#ao" transform="matrix(1,0,0,1,1352.8192018986424,2058.6463267768677) translate(39.85685185185186 14.222222222222223)"/><use xlink:href="#R" transform="matrix(1,0,0,1,1352.8192018986424,2058.6463267768677) translate(0.005000000000002558 35.55555555555556)"/><use xlink:href="#S" transform="matrix(1,0,0,1,1352.8192018986424,2058.6463267768677) translate(21.634629629629632 35.55555555555556)"/></g><path d="M1713.22 2143.13h-1v-88.3h1zm0-109.65h-1v-72.54h1z" stroke="#3a414a" stroke-width=".05" fill="#3a414a"/><path d="M1713.22 1960.95h-1v-.5h1z" fill="#3a414a"/><path d="M1713.25 1960.97h-1.05v-.56h1.05zm-1-.5v.45h.95v-.46z" stroke="#3a414a" stroke-width=".05" fill="#3a414a"/><path d="M1712.72 2157.9l-4.63-14.27h9.26z" fill="#3a414a"/><path d="M1712.72 2159.5l-5.32-16.37h10.64zm-3.95-15.37l3.95 12.14 3.95-12.14z" stroke="#3a414a" stroke-width=".05" fill="#3a414a"/><g><use xlink:href="#ap" transform="matrix(1,0,0,1,1653.0668861540219,2033.484034589003) translate(0 14.222222222222223)"/><use xlink:href="#aq" transform="matrix(1,0,0,1,1653.0668861540219,2033.484034589003) translate(48.2962962962963 14.222222222222223)"/></g><path d="M1580 2166a6 6 0 0 1 6-6h148a6 6 0 0 1 6 6v108a6 6 0 0 1-6 6h-148a6 6 0 0 1-6-6z" stroke="#3a414a" fill="#fff"/><g><use xlink:href="#v" transform="matrix(1,0,0,1,1592,2172) translate(31.672839506172842 38.77777777777778)"/><use xlink:href="#ar" transform="matrix(1,0,0,1,1592,2172) translate(0.1296296296296191 65.44444444444446)"/><use xlink:href="#as" transform="matrix(1,0,0,1,1592,2172) translate(88.95679012345678 65.44444444444446)"/></g><path d="M1610.8 2159.06h-1v-63.7h1zm0-85.02h-1v-97.17h1z" stroke="#3a414a" stroke-width=".05" fill="#3a414a"/><path d="M1610.8 2159.56h-1v-.5h1z" fill="#3a414a"/><path d="M1610.82 2159.6h-1.05v-.58h1.05zm-1-.53v.47h.95v-.47z" stroke="#3a414a" stroke-width=".05" fill="#3a414a"/><path d="M1614.93 1976.37h-9.27l4.63-14.26z" fill="#3a414a"/><path d="M1615.62 1976.87h-10.65l5.32-16.38zm-9.28-1h7.9l-3.95-12.15z" stroke="#3a414a" stroke-width=".05" fill="#3a414a"/><g><use xlink:href="#l" transform="matrix(1,0,0,1,1590.0693807416012,2074.0358752487286) translate(0 14.222222222222223)"/></g><defs><path fill="#3a414a" d="M33 0v-248h34V0H33" id="at"/><path fill="#3a414a" d="M85-194c31 0 48 13 60 33l-1-100h32l1 261h-30c-2-10 0-23-3-31C134-8 116 4 85 4 32 4 16-35 15-94c0-66 23-100 70-100zm9 24c-40 0-46 34-46 75 0 40 6 74 45 74 42 0 51-32 51-76 0-42-9-74-50-73" id="au"/><path fill="#3a414a" d="M24 0v-261h32V0H24" id="av"/><path fill="#3a414a" d="M100-194c63 0 86 42 84 106H49c0 40 14 67 53 68 26 1 43-12 49-29l28 8c-11 28-37 45-77 45C44 4 14-33 15-96c1-61 26-98 85-98zm52 81c6-60-76-77-97-28-3 7-6 17-6 28h103" id="aw"/><g id="a"><use transform="matrix(0.06172839506172839,0,0,0.06172839506172839,0,0)" xlink:href="#at"/><use transform="matrix(0.06172839506172839,0,0,0.06172839506172839,6.172839506172839,0)" xlink:href="#au"/><use transform="matrix(0.06172839506172839,0,0,0.06172839506172839,18.51851851851852,0)" xlink:href="#av"/><use transform="matrix(0.06172839506172839,0,0,0.06172839506172839,23.395061728395063,0)" xlink:href="#aw"/></g><path fill="#3a414a" d="M0 4l72-265h28L28 4H0" id="ax"/><use transform="matrix(0.06172839506172839,0,0,0.06172839506172839,0,0)" xlink:href="#ax" id="b"/><path fill="#3a414a" d="M210-169c-67 3-38 105-44 169h-31v-121c0-29-5-50-35-48C34-165 62-65 56 0H25l-1-190h30c1 10-1 24 2 32 10-44 99-50 107 0 11-21 27-35 58-36 85-2 47 119 55 194h-31v-121c0-29-5-49-35-48" id="ay"/><path fill="#3a414a" d="M141-36C126-15 110 5 73 4 37 3 15-17 15-53c-1-64 63-63 125-63 3-35-9-54-41-54-24 1-41 7-42 31l-33-3c5-37 33-52 76-52 45 0 72 20 72 64v82c-1 20 7 32 28 27v20c-31 9-61-2-59-35zM48-53c0 20 12 33 32 33 41-3 63-29 60-74-43 2-92-5-92 41" id="az"/><path fill="#3a414a" d="M24-231v-30h32v30H24zM24 0v-190h32V0H24" id="aA"/><path fill="#3a414a" d="M117-194c89-4 53 116 60 194h-32v-121c0-31-8-49-39-48C34-167 62-67 57 0H25l-1-190h30c1 10-1 24 2 32 11-22 29-35 61-36" id="aB"/><g id="c"><use transform="matrix(0.06172839506172839,0,0,0.06172839506172839,0,0)" xlink:href="#ay"/><use transform="matrix(0.06172839506172839,0,0,0.06172839506172839,18.456790123456788,0)" xlink:href="#az"/><use transform="matrix(0.06172839506172839,0,0,0.06172839506172839,30.80246913580247,0)" xlink:href="#aA"/><use transform="matrix(0.06172839506172839,0,0,0.06172839506172839,35.67901234567901,0)" xlink:href="#aB"/></g><path fill="#3a414a" d="M84 4C-5 8 30-112 23-190h32v120c0 31 7 50 39 49 72-2 45-101 50-169h31l1 190h-30c-1-10 1-25-2-33-11 22-28 36-60 37" id="aC"/><g id="d"><use transform="matrix(0.06172839506172839,0,0,0.06172839506172839,0,0)" xlink:href="#ay"/><use transform="matrix(0.06172839506172839,0,0,0.06172839506172839,18.456790123456788,0)" xlink:href="#aw"/><use transform="matrix(0.06172839506172839,0,0,0.06172839506172839,30.80246913580247,0)" xlink:href="#aB"/><use transform="matrix(0.06172839506172839,0,0,0.06172839506172839,43.148148148148145,0)" xlink:href="#aC"/></g><path fill="#3a414a" d="M140-251c81 0 123 46 123 126C263-46 219 4 140 4 59 4 17-45 17-125s42-126 123-126zm0 227c63 0 89-41 89-101s-29-99-89-99c-61 0-89 39-89 99S79-25 140-24" id="aD"/><path fill="#3a414a" d="M114-163C36-179 61-72 57 0H25l-1-190h30c1 12-1 29 2 39 6-27 23-49 58-41v29" id="aE"/><path fill="#3a414a" d="M177-190C167-65 218 103 67 71c-23-6-38-20-44-43l32-5c15 47 100 32 89-28v-30C133-14 115 1 83 1 29 1 15-40 15-95c0-56 16-97 71-98 29-1 48 16 59 35 1-10 0-23 2-32h30zM94-22c36 0 50-32 50-73 0-42-14-75-50-75-39 0-46 34-46 75s6 73 46 73" id="aF"/><path fill="#3a414a" d="M9 0v-24l116-142H16v-24h144v24L44-24h123V0H9" id="aG"/><g id="e"><use transform="matrix(0.06172839506172839,0,0,0.06172839506172839,0,0)" xlink:href="#aD"/><use transform="matrix(0.06172839506172839,0,0,0.06172839506172839,17.28395061728395,0)" xlink:href="#aE"/><use transform="matrix(0.06172839506172839,0,0,0.06172839506172839,24.629629629629626,0)" xlink:href="#aF"/><use transform="matrix(0.06172839506172839,0,0,0.06172839506172839,36.9753086419753,0)" xlink:href="#az"/><use transform="matrix(0.06172839506172839,0,0,0.06172839506172839,49.32098765432098,0)" xlink:href="#aB"/><use transform="matrix(0.06172839506172839,0,0,0.06172839506172839,61.66666666666666,0)" xlink:href="#aA"/><use transform="matrix(0.06172839506172839,0,0,0.06172839506172839,66.5432098765432,0)" xlink:href="#aG"/><use transform="matrix(0.06172839506172839,0,0,0.06172839506172839,77.65432098765432,0)" xlink:href="#aw"/><use transform="matrix(0.06172839506172839,0,0,0.06172839506172839,90,0)" xlink:href="#aE"/></g><g id="f"><use transform="matrix(0.06172839506172839,0,0,0.06172839506172839,0,0)" xlink:href="#ay"/><use transform="matrix(0.06172839506172839,0,0,0.06172839506172839,18.456790123456788,0)" xlink:href="#aw"/><use transform="matrix(0.06172839506172839,0,0,0.06172839506172839,30.80246913580247,0)" xlink:href="#aB"/><use transform="matrix(0.06172839506172839,0,0,0.06172839506172839,43.148148148148145,0)" xlink:href="#aC"/></g><use transform="matrix(0.06172839506172839,0,0,0.06172839506172839,0,0)" xlink:href="#ax" id="g"/><g id="h"><use transform="matrix(0.06172839506172839,0,0,0.06172839506172839,0,0)" xlink:href="#aA"/><use transform="matrix(0.06172839506172839,0,0,0.06172839506172839,4.876543209876543,0)" xlink:href="#au"/><use transform="matrix(0.06172839506172839,0,0,0.06172839506172839,17.22222222222222,0)" xlink:href="#av"/><use transform="matrix(0.06172839506172839,0,0,0.06172839506172839,22.098765432098766,0)" xlink:href="#aw"/></g><path fill="#3a414a" d="M185-189c-5-48-123-54-124 2 14 75 158 14 163 119 3 78-121 87-175 55-17-10-28-26-33-46l33-7c5 56 141 63 141-1 0-78-155-14-162-118-5-82 145-84 179-34 5 7 8 16 11 25" id="aH"/><path fill="#3a414a" d="M59-47c-2 24 18 29 38 22v24C64 9 27 4 27-40v-127H5v-23h24l9-43h21v43h35v23H59v120" id="aI"/><path fill="#3a414a" d="M135-143c-3-34-86-38-87 0 15 53 115 12 119 90S17 21 10-45l28-5c4 36 97 45 98 0-10-56-113-15-118-90-4-57 82-63 122-42 12 7 21 19 24 35" id="aJ"/><g id="i"><use transform="matrix(0.06172839506172839,0,0,0.06172839506172839,0,0)" xlink:href="#aH"/><use transform="matrix(0.06172839506172839,0,0,0.06172839506172839,14.814814814814813,0)" xlink:href="#aI"/><use transform="matrix(0.06172839506172839,0,0,0.06172839506172839,20.98765432098765,0)" xlink:href="#az"/><use transform="matrix(0.06172839506172839,0,0,0.06172839506172839,33.33333333333333,0)" xlink:href="#aI"/><use transform="matrix(0.06172839506172839,0,0,0.06172839506172839,39.50617283950617,0)" xlink:href="#aJ"/></g><path fill="#3a414a" d="M127-220V0H93v-220H8v-28h204v28h-85" id="aK"/><g id="j"><use transform="matrix(0.06172839506172839,0,0,0.06172839506172839,0,0)" xlink:href="#aK"/><use transform="matrix(0.06172839506172839,0,0,0.06172839506172839,11.049382716049381,0)" xlink:href="#aw"/><use transform="matrix(0.06172839506172839,0,0,0.06172839506172839,23.39506172839506,0)" xlink:href="#az"/><use transform="matrix(0.06172839506172839,0,0,0.06172839506172839,35.74074074074074,0)" xlink:href="#ay"/></g><path fill="#3a414a" d="M96-169c-40 0-48 33-48 73s9 75 48 75c24 0 41-14 43-38l32 2c-6 37-31 61-74 61-59 0-76-41-82-99-10-93 101-131 147-64 4 7 5 14 7 22l-32 3c-4-21-16-35-41-35" id="aL"/><path fill="#3a414a" d="M115-194c55 1 70 41 70 98S169 2 115 4C84 4 66-9 55-30l1 105H24l-1-265h31l2 30c10-21 28-34 59-34zm-8 174c40 0 45-34 45-75s-6-73-45-74c-42 0-51 32-51 76 0 43 10 73 51 73" id="aM"/><g id="k"><use transform="matrix(0.06172839506172839,0,0,0.06172839506172839,0,0)" xlink:href="#aL"/><use transform="matrix(0.06172839506172839,0,0,0.06172839506172839,11.11111111111111,0)" xlink:href="#az"/><use transform="matrix(0.06172839506172839,0,0,0.06172839506172839,23.45679012345679,0)" xlink:href="#aM"/><use transform="matrix(0.06172839506172839,0,0,0.06172839506172839,35.80246913580247,0)" xlink:href="#aI"/><use transform="matrix(0.06172839506172839,0,0,0.06172839506172839,41.97530864197531,0)" xlink:href="#az"/><use transform="matrix(0.06172839506172839,0,0,0.06172839506172839,54.32098765432099,0)" xlink:href="#aA"/><use transform="matrix(0.06172839506172839,0,0,0.06172839506172839,59.19753086419753,0)" xlink:href="#aB"/></g><path fill="#333" d="M135-194c52 0 70 43 70 98 0 56-19 99-73 100-30 1-46-15-58-35L72 0H24l1-261h50v104c11-23 29-37 60-37zM114-30c31 0 40-27 40-66 0-37-7-63-39-63s-41 28-41 65c0 36 8 64 40 64" id="aN"/><path fill="#333" d="M133-34C117-15 103 5 69 4 32 3 11-16 11-54c-1-60 55-63 116-61 1-26-3-47-28-47-18 1-26 9-28 27l-52-2c7-38 36-58 82-57s74 22 75 68l1 82c-1 14 12 18 25 15v27c-30 8-71 5-69-32zm-48 3c29 0 43-24 42-57-32 0-66-3-65 30 0 17 8 27 23 27" id="aO"/><path fill="#333" d="M190-63c-7 42-38 67-86 67-59 0-84-38-90-98-12-110 154-137 174-36l-49 2c-2-19-15-32-35-32-30 0-35 28-38 64-6 74 65 87 74 30" id="aP"/><path fill="#333" d="M147 0L96-86 75-71V0H25v-261h50v150l67-79h53l-66 74L201 0h-54" id="aQ"/><g id="l"><use transform="matrix(0.04938271604938272,0,0,0.04938271604938272,0,0)" xlink:href="#aN"/><use transform="matrix(0.04938271604938272,0,0,0.04938271604938272,10.814814814814815,0)" xlink:href="#aO"/><use transform="matrix(0.04938271604938272,0,0,0.04938271604938272,20.69135802469136,0)" xlink:href="#aP"/><use transform="matrix(0.04938271604938272,0,0,0.04938271604938272,30.567901234567906,0)" xlink:href="#aQ"/></g><path fill="#333" d="M169-182c-1-43-94-46-97-3 18 66 151 10 154 114 3 95-165 93-204 36-6-8-10-19-12-30l50-8c3 46 112 56 116 5-17-69-150-10-154-114-4-87 153-88 188-35 5 8 8 18 10 28" id="aR"/><path fill="#333" d="M185-48c-13 30-37 53-82 52C43 2 14-33 14-96s30-98 90-98c62 0 83 45 84 108H66c0 31 8 55 39 56 18 0 30-7 34-22zm-45-69c5-46-57-63-70-21-2 6-4 13-4 21h74" id="aS"/><path fill="#333" d="M25 0v-261h50V0H25" id="aT"/><path fill="#333" d="M115-3C79 11 28 4 28-45v-112H4v-33h27l15-45h31v45h36v33H77v99c-1 23 16 31 38 25v30" id="aU"/><g id="m"><use transform="matrix(0.04938271604938272,0,0,0.04938271604938272,0,0)" xlink:href="#aR"/><use transform="matrix(0.04938271604938272,0,0,0.04938271604938272,11.851851851851853,0)" xlink:href="#aS"/><use transform="matrix(0.04938271604938272,0,0,0.04938271604938272,21.7283950617284,0)" xlink:href="#aT"/><use transform="matrix(0.04938271604938272,0,0,0.04938271604938272,26.666666666666668,0)" xlink:href="#aS"/><use transform="matrix(0.04938271604938272,0,0,0.04938271604938272,36.543209876543216,0)" xlink:href="#aP"/><use transform="matrix(0.04938271604938272,0,0,0.04938271604938272,46.41975308641976,0)" xlink:href="#aU"/></g><path fill="#333" d="M135-150c-39-12-60 13-60 57V0H25l-1-190h47c2 13-1 29 3 40 6-28 27-53 61-41v41" id="aV"/><path fill="#333" d="M195-6C206 82 75 100 31 46c-4-6-6-13-8-21l49-6c3 16 16 24 34 25 40 0 42-37 40-79-11 22-30 35-61 35-53 0-70-43-70-97 0-56 18-96 73-97 30 0 46 14 59 34l2-30h47zm-90-29c32 0 41-27 41-63 0-35-9-62-40-62-32 0-39 29-40 63 0 36 9 62 39 62" id="aW"/><path fill="#333" d="M25-224v-37h50v37H25zM25 0v-190h50V0H25" id="aX"/><path fill="#333" d="M137-138c1-29-70-34-71-4 15 46 118 7 119 86 1 83-164 76-172 9l43-7c4 19 20 25 44 25 33 8 57-30 24-41C81-84 22-81 20-136c-2-80 154-74 161-7" id="aY"/><g id="n"><use transform="matrix(0.04938271604938272,0,0,0.04938271604938272,0,0)" xlink:href="#aV"/><use transform="matrix(0.04938271604938272,0,0,0.04938271604938272,6.913580246913581,0)" xlink:href="#aS"/><use transform="matrix(0.04938271604938272,0,0,0.04938271604938272,16.790123456790127,0)" xlink:href="#aW"/><use transform="matrix(0.04938271604938272,0,0,0.04938271604938272,27.604938271604947,0)" xlink:href="#aX"/><use transform="matrix(0.04938271604938272,0,0,0.04938271604938272,32.543209876543216,0)" xlink:href="#aY"/><use transform="matrix(0.04938271604938272,0,0,0.04938271604938272,42.41975308641976,0)" xlink:href="#aU"/><use transform="matrix(0.04938271604938272,0,0,0.04938271604938272,48.296296296296305,0)" xlink:href="#aS"/><use transform="matrix(0.04938271604938272,0,0,0.04938271604938272,58.17283950617284,0)" xlink:href="#aV"/></g><path fill="#333" d="M220-157c-53 9-28 100-34 157h-49v-107c1-27-5-49-29-50C55-147 81-57 75 0H25l-1-190h47c2 12-1 28 3 38 10-53 101-56 108 0 13-22 24-43 59-42 82 1 51 116 57 194h-49v-107c-1-25-5-48-29-50" id="aZ"/><g id="o"><use transform="matrix(0.04938271604938272,0,0,0.04938271604938272,0,0)" xlink:href="#aU"/><use transform="matrix(0.04938271604938272,0,0,0.04938271604938272,5.8765432098765435,0)" xlink:href="#aS"/><use transform="matrix(0.04938271604938272,0,0,0.04938271604938272,15.753086419753087,0)" xlink:href="#aO"/><use transform="matrix(0.04938271604938272,0,0,0.04938271604938272,25.629629629629633,0)" xlink:href="#aZ"/></g><path fill="#3a414a" d="M30-248c118-7 216 8 213 122C240-48 200 0 122 0H30v-248zM63-27c89 8 146-16 146-99s-60-101-146-95v194" id="ba"/><path fill="#3a414a" d="M179-190L93 31C79 59 56 82 12 73V49c39 6 53-20 64-50L1-190h34L92-34l54-156h33" id="bb"/><g id="p"><use transform="matrix(0.06172839506172839,0,0,0.06172839506172839,0,0)" xlink:href="#ba"/><use transform="matrix(0.06172839506172839,0,0,0.06172839506172839,15.987654320987653,0)" xlink:href="#aA"/><use transform="matrix(0.06172839506172839,0,0,0.06172839506172839,20.864197530864196,0)" xlink:href="#aJ"/><use transform="matrix(0.06172839506172839,0,0,0.06172839506172839,31.975308641975307,0)" xlink:href="#aM"/><use transform="matrix(0.06172839506172839,0,0,0.06172839506172839,44.32098765432099,0)" xlink:href="#av"/><use transform="matrix(0.06172839506172839,0,0,0.06172839506172839,49.19753086419753,0)" xlink:href="#az"/><use transform="matrix(0.06172839506172839,0,0,0.06172839506172839,61.54320987654321,0)" xlink:href="#bb"/></g><g id="q"><use transform="matrix(0.06172839506172839,0,0,0.06172839506172839,0,0)" xlink:href="#aI"/><use transform="matrix(0.06172839506172839,0,0,0.06172839506172839,6.172839506172839,0)" xlink:href="#aw"/><use transform="matrix(0.06172839506172839,0,0,0.06172839506172839,18.51851851851852,0)" xlink:href="#az"/><use transform="matrix(0.06172839506172839,0,0,0.06172839506172839,30.864197530864196,0)" xlink:href="#ay"/></g><path fill="#3a414a" d="M100-194c62-1 85 37 85 99 1 63-27 99-86 99S16-35 15-95c0-66 28-99 85-99zM99-20c44 1 53-31 53-75 0-43-8-75-51-75s-53 32-53 75 10 74 51 75" id="bc"/><g id="r"><use transform="matrix(0.06172839506172839,0,0,0.06172839506172839,0,0)" xlink:href="#aE"/><use transform="matrix(0.06172839506172839,0,0,0.06172839506172839,7.345679012345679,0)" xlink:href="#aw"/><use transform="matrix(0.06172839506172839,0,0,0.06172839506172839,19.691358024691358,0)" xlink:href="#aF"/><use transform="matrix(0.06172839506172839,0,0,0.06172839506172839,32.03703703703704,0)" xlink:href="#aA"/><use transform="matrix(0.06172839506172839,0,0,0.06172839506172839,36.91358024691358,0)" xlink:href="#aJ"/><use transform="matrix(0.06172839506172839,0,0,0.06172839506172839,48.0246913580247,0)" xlink:href="#aI"/><use transform="matrix(0.06172839506172839,0,0,0.06172839506172839,54.19753086419754,0)" xlink:href="#aE"/><use transform="matrix(0.06172839506172839,0,0,0.06172839506172839,61.543209876543216,0)" xlink:href="#az"/><use transform="matrix(0.06172839506172839,0,0,0.06172839506172839,73.8888888888889,0)" xlink:href="#aI"/><use transform="matrix(0.06172839506172839,0,0,0.06172839506172839,80.06172839506173,0)" xlink:href="#aA"/><use transform="matrix(0.06172839506172839,0,0,0.06172839506172839,84.93827160493828,0)" xlink:href="#bc"/><use transform="matrix(0.06172839506172839,0,0,0.06172839506172839,97.28395061728396,0)" xlink:href="#aB"/></g><g id="s"><use transform="matrix(0.04938271604938272,0,0,0.04938271604938272,0,0)" xlink:href="#aR"/><use transform="matrix(0.04938271604938272,0,0,0.04938271604938272,11.851851851851853,0)" xlink:href="#aS"/><use transform="matrix(0.04938271604938272,0,0,0.04938271604938272,21.7283950617284,0)" xlink:href="#aT"/><use transform="matrix(0.04938271604938272,0,0,0.04938271604938272,26.666666666666668,0)" xlink:href="#aS"/><use transform="matrix(0.04938271604938272,0,0,0.04938271604938272,36.543209876543216,0)" xlink:href="#aP"/><use transform="matrix(0.04938271604938272,0,0,0.04938271604938272,46.41975308641976,0)" xlink:href="#aU"/></g><g id="t"><use transform="matrix(0.04938271604938272,0,0,0.04938271604938272,0,0)" xlink:href="#aV"/><use transform="matrix(0.04938271604938272,0,0,0.04938271604938272,6.913580246913581,0)" xlink:href="#aS"/><use transform="matrix(0.04938271604938272,0,0,0.04938271604938272,16.790123456790127,0)" xlink:href="#aW"/><use transform="matrix(0.04938271604938272,0,0,0.04938271604938272,27.604938271604947,0)" xlink:href="#aX"/><use transform="matrix(0.04938271604938272,0,0,0.04938271604938272,32.543209876543216,0)" xlink:href="#aY"/><use transform="matrix(0.04938271604938272,0,0,0.04938271604938272,42.41975308641976,0)" xlink:href="#aU"/><use transform="matrix(0.04938271604938272,0,0,0.04938271604938272,48.296296296296305,0)" xlink:href="#aS"/><use transform="matrix(0.04938271604938272,0,0,0.04938271604938272,58.17283950617284,0)" xlink:href="#aV"/></g><path fill="#333" d="M135-194c53 0 70 44 70 98 0 56-19 98-73 100-31 1-45-17-59-34 3 33 2 69 2 105H25l-1-265h48c2 10 0 23 3 31 11-24 29-35 60-35zM114-30c33 0 39-31 40-66 0-38-9-64-40-64-56 0-55 130 0 130" id="bd"/><path fill="#333" d="M123 10C108 53 80 86 19 72V37c35 8 53-11 59-39L3-190h52l48 148c12-52 28-100 44-148h51" id="be"/><g id="u"><use transform="matrix(0.04938271604938272,0,0,0.04938271604938272,0,0)" xlink:href="#bd"/><use transform="matrix(0.04938271604938272,0,0,0.04938271604938272,10.814814814814815,0)" xlink:href="#aT"/><use transform="matrix(0.04938271604938272,0,0,0.04938271604938272,15.753086419753087,0)" xlink:href="#aO"/><use transform="matrix(0.04938271604938272,0,0,0.04938271604938272,25.629629629629633,0)" xlink:href="#be"/><use transform="matrix(0.04938271604938272,0,0,0.04938271604938272,35.50617283950618,0)" xlink:href="#aS"/><use transform="matrix(0.04938271604938272,0,0,0.04938271604938272,45.38271604938272,0)" xlink:href="#aV"/><use transform="matrix(0.04938271604938272,0,0,0.04938271604938272,52.2962962962963,0)" xlink:href="#aY"/></g><g id="v"><use transform="matrix(0.06172839506172839,0,0,0.06172839506172839,0,0)" xlink:href="#ba"/><use transform="matrix(0.06172839506172839,0,0,0.06172839506172839,15.987654320987653,0)" xlink:href="#aA"/><use transform="matrix(0.06172839506172839,0,0,0.06172839506172839,20.864197530864196,0)" xlink:href="#aJ"/><use transform="matrix(0.06172839506172839,0,0,0.06172839506172839,31.975308641975307,0)" xlink:href="#aM"/><use transform="matrix(0.06172839506172839,0,0,0.06172839506172839,44.32098765432099,0)" xlink:href="#av"/><use transform="matrix(0.06172839506172839,0,0,0.06172839506172839,49.19753086419753,0)" xlink:href="#az"/><use transform="matrix(0.06172839506172839,0,0,0.06172839506172839,61.54320987654321,0)" xlink:href="#bb"/></g><g id="w"><use transform="matrix(0.06172839506172839,0,0,0.06172839506172839,0,0)" xlink:href="#aM"/><use transform="matrix(0.06172839506172839,0,0,0.06172839506172839,12.345679012345679,0)" xlink:href="#av"/><use transform="matrix(0.06172839506172839,0,0,0.06172839506172839,17.22222222222222,0)" xlink:href="#az"/><use transform="matrix(0.06172839506172839,0,0,0.06172839506172839,29.5679012345679,0)" xlink:href="#bb"/><use transform="matrix(0.06172839506172839,0,0,0.06172839506172839,40.67901234567901,0)" xlink:href="#aw"/><use transform="matrix(0.06172839506172839,0,0,0.06172839506172839,53.02469135802469,0)" xlink:href="#aE"/></g><path fill="#3a414a" d="M33 0v-38h34V0H33" id="bf"/><g id="x"><use transform="matrix(0.06172839506172839,0,0,0.06172839506172839,0,0)" xlink:href="#aE"/><use transform="matrix(0.06172839506172839,0,0,0.06172839506172839,7.345679012345679,0)" xlink:href="#aw"/><use transform="matrix(0.06172839506172839,0,0,0.06172839506172839,19.691358024691358,0)" xlink:href="#aF"/><use transform="matrix(0.06172839506172839,0,0,0.06172839506172839,32.03703703703704,0)" xlink:href="#bf"/></g><path fill="#3a414a" d="M101-234c-31-9-42 10-38 44h38v23H63V0H32v-167H5v-23h27c-7-52 17-82 69-68v24" id="bg"/><g id="y"><use transform="matrix(0.06172839506172839,0,0,0.06172839506172839,0,0)" xlink:href="#bg"/><use transform="matrix(0.06172839506172839,0,0,0.06172839506172839,6.172839506172839,0)" xlink:href="#bc"/><use transform="matrix(0.06172839506172839,0,0,0.06172839506172839,18.51851851851852,0)" xlink:href="#aE"/><use transform="matrix(0.06172839506172839,0,0,0.06172839506172839,25.864197530864196,0)" xlink:href="#ay"/></g><g id="z"><use transform="matrix(0.04938271604938272,0,0,0.04938271604938272,0,0)" xlink:href="#aP"/><use transform="matrix(0.04938271604938272,0,0,0.04938271604938272,9.876543209876544,0)" xlink:href="#aV"/><use transform="matrix(0.04938271604938272,0,0,0.04938271604938272,16.790123456790127,0)" xlink:href="#aS"/><use transform="matrix(0.04938271604938272,0,0,0.04938271604938272,26.666666666666668,0)" xlink:href="#aO"/><use transform="matrix(0.04938271604938272,0,0,0.04938271604938272,36.543209876543216,0)" xlink:href="#aU"/><use transform="matrix(0.04938271604938272,0,0,0.04938271604938272,42.41975308641976,0)" xlink:href="#aS"/></g><path fill="#333" d="M110-194c64 0 96 36 96 99 0 64-35 99-97 99-61 0-95-36-95-99 0-62 34-99 96-99zm-1 164c35 0 45-28 45-65 0-40-10-65-43-65-34 0-45 26-45 65 0 36 10 65 43 65" id="bh"/><path fill="#333" d="M85 4C-2 5 27-109 22-190h50c7 57-23 150 33 157 60-5 35-97 40-157h50l1 190h-47c-2-12 1-28-3-38-12 25-28 42-61 42" id="bi"/><path fill="#333" d="M135-194c87-1 58 113 63 194h-50c-7-57 23-157-34-157-59 0-34 97-39 157H25l-1-190h47c2 12-1 28 3 38 12-26 28-41 61-42" id="bj"/><g id="A"><use transform="matrix(0.04938271604938272,0,0,0.04938271604938272,0,0)" xlink:href="#aU"/><use transform="matrix(0.04938271604938272,0,0,0.04938271604938272,5.8765432098765435,0)" xlink:href="#bh"/><use transform="matrix(0.04938271604938272,0,0,0.04938271604938272,16.691358024691358,0)" xlink:href="#bi"/><use transform="matrix(0.04938271604938272,0,0,0.04938271604938272,27.50617283950617,0)" xlink:href="#aV"/><use transform="matrix(0.04938271604938272,0,0,0.04938271604938272,34.41975308641975,0)" xlink:href="#bj"/><use transform="matrix(0.04938271604938272,0,0,0.04938271604938272,45.23456790123457,0)" xlink:href="#aO"/><use transform="matrix(0.04938271604938272,0,0,0.04938271604938272,55.111111111111114,0)" xlink:href="#aZ"/><use transform="matrix(0.04938271604938272,0,0,0.04938271604938272,70.91358024691358,0)" xlink:href="#aS"/><use transform="matrix(0.04938271604938272,0,0,0.04938271604938272,80.79012345679013,0)" xlink:href="#bj"/><use transform="matrix(0.04938271604938272,0,0,0.04938271604938272,91.60493827160494,0)" xlink:href="#aU"/></g><g id="B"><use transform="matrix(0.06172839506172839,0,0,0.06172839506172839,0,0)" xlink:href="#ba"/><use transform="matrix(0.06172839506172839,0,0,0.06172839506172839,15.987654320987653,0)" xlink:href="#aA"/><use transform="matrix(0.06172839506172839,0,0,0.06172839506172839,20.864197530864196,0)" xlink:href="#aJ"/><use transform="matrix(0.06172839506172839,0,0,0.06172839506172839,31.975308641975307,0)" xlink:href="#aM"/><use transform="matrix(0.06172839506172839,0,0,0.06172839506172839,44.32098765432099,0)" xlink:href="#av"/><use transform="matrix(0.06172839506172839,0,0,0.06172839506172839,49.19753086419753,0)" xlink:href="#bb"/></g><g id="C"><use transform="matrix(0.06172839506172839,0,0,0.06172839506172839,0,0)" xlink:href="#aL"/><use transform="matrix(0.06172839506172839,0,0,0.06172839506172839,11.11111111111111,0)" xlink:href="#aE"/><use transform="matrix(0.06172839506172839,0,0,0.06172839506172839,18.45679012345679,0)" xlink:href="#aw"/><use transform="matrix(0.06172839506172839,0,0,0.06172839506172839,30.80246913580247,0)" xlink:href="#az"/><use transform="matrix(0.06172839506172839,0,0,0.06172839506172839,43.148148148148145,0)" xlink:href="#aI"/><use transform="matrix(0.06172839506172839,0,0,0.06172839506172839,49.32098765432099,0)" xlink:href="#aw"/></g><g id="D"><use transform="matrix(0.06172839506172839,0,0,0.06172839506172839,0,0)" xlink:href="#aI"/><use transform="matrix(0.06172839506172839,0,0,0.06172839506172839,6.172839506172839,0)" xlink:href="#bc"/><use transform="matrix(0.06172839506172839,0,0,0.06172839506172839,18.51851851851852,0)" xlink:href="#aC"/><use transform="matrix(0.06172839506172839,0,0,0.06172839506172839,30.864197530864196,0)" xlink:href="#aE"/><use transform="matrix(0.06172839506172839,0,0,0.06172839506172839,38.20987654320987,0)" xlink:href="#aB"/><use transform="matrix(0.06172839506172839,0,0,0.06172839506172839,50.55555555555555,0)" xlink:href="#az"/><use transform="matrix(0.06172839506172839,0,0,0.06172839506172839,62.90123456790123,0)" xlink:href="#ay"/><use transform="matrix(0.06172839506172839,0,0,0.06172839506172839,81.35802469135801,0)" xlink:href="#aw"/><use transform="matrix(0.06172839506172839,0,0,0.06172839506172839,93.7037037037037,0)" xlink:href="#aB"/><use transform="matrix(0.06172839506172839,0,0,0.06172839506172839,106.04938271604938,0)" xlink:href="#aI"/></g><g id="E"><use transform="matrix(0.04938271604938272,0,0,0.04938271604938272,0,0)" xlink:href="#aU"/><use transform="matrix(0.04938271604938272,0,0,0.04938271604938272,5.8765432098765435,0)" xlink:href="#aS"/><use transform="matrix(0.04938271604938272,0,0,0.04938271604938272,15.753086419753087,0)" xlink:href="#aO"/><use transform="matrix(0.04938271604938272,0,0,0.04938271604938272,25.629629629629633,0)" xlink:href="#aZ"/></g><g id="F"><use transform="matrix(0.04938271604938272,0,0,0.04938271604938272,0,0)" xlink:href="#aP"/><use transform="matrix(0.04938271604938272,0,0,0.04938271604938272,9.876543209876544,0)" xlink:href="#aO"/><use transform="matrix(0.04938271604938272,0,0,0.04938271604938272,19.75308641975309,0)" xlink:href="#bd"/><use transform="matrix(0.04938271604938272,0,0,0.04938271604938272,30.567901234567906,0)" xlink:href="#aU"/><use transform="matrix(0.04938271604938272,0,0,0.04938271604938272,36.44444444444445,0)" xlink:href="#aO"/><use transform="matrix(0.04938271604938272,0,0,0.04938271604938272,46.320987654320994,0)" xlink:href="#aX"/><use transform="matrix(0.04938271604938272,0,0,0.04938271604938272,51.25925925925927,0)" xlink:href="#bj"/></g><g id="G"><use transform="matrix(0.04938271604938272,0,0,0.04938271604938272,0,0)" xlink:href="#aY"/><use transform="matrix(0.04938271604938272,0,0,0.04938271604938272,9.876543209876544,0)" xlink:href="#aS"/><use transform="matrix(0.04938271604938272,0,0,0.04938271604938272,19.75308641975309,0)" xlink:href="#aT"/><use transform="matrix(0.04938271604938272,0,0,0.04938271604938272,24.69135802469136,0)" xlink:href="#aS"/><use transform="matrix(0.04938271604938272,0,0,0.04938271604938272,34.567901234567906,0)" xlink:href="#aP"/><use transform="matrix(0.04938271604938272,0,0,0.04938271604938272,44.44444444444445,0)" xlink:href="#aU"/><use transform="matrix(0.04938271604938272,0,0,0.04938271604938272,50.320987654320994,0)" xlink:href="#aX"/><use transform="matrix(0.04938271604938272,0,0,0.04938271604938272,55.25925925925927,0)" xlink:href="#bh"/><use transform="matrix(0.04938271604938272,0,0,0.04938271604938272,66.07407407407408,0)" xlink:href="#bj"/></g><g id="H"><use transform="matrix(0.06172839506172839,0,0,0.06172839506172839,0,0)" xlink:href="#aJ"/><use transform="matrix(0.06172839506172839,0,0,0.06172839506172839,11.11111111111111,0)" xlink:href="#aw"/><use transform="matrix(0.06172839506172839,0,0,0.06172839506172839,23.45679012345679,0)" xlink:href="#av"/><use transform="matrix(0.06172839506172839,0,0,0.06172839506172839,28.333333333333336,0)" xlink:href="#aw"/><use transform="matrix(0.06172839506172839,0,0,0.06172839506172839,40.67901234567901,0)" xlink:href="#aL"/><use transform="matrix(0.06172839506172839,0,0,0.06172839506172839,51.79012345679013,0)" xlink:href="#aI"/><use transform="matrix(0.06172839506172839,0,0,0.06172839506172839,57.96296296296297,0)" xlink:href="#aA"/><use transform="matrix(0.06172839506172839,0,0,0.06172839506172839,62.83950617283951,0)" xlink:href="#bc"/><use transform="matrix(0.06172839506172839,0,0,0.06172839506172839,75.18518518518519,0)" xlink:href="#aB"/></g><path fill="#333" d="M114-157C55-157 80-60 75 0H25v-261h50l-1 109c12-26 28-41 61-42 86-1 58 113 63 194h-50c-7-57 23-157-34-157" id="bk"/><g id="I"><use transform="matrix(0.04938271604938272,0,0,0.04938271604938272,0,0)" xlink:href="#aP"/><use transform="matrix(0.04938271604938272,0,0,0.04938271604938272,9.876543209876544,0)" xlink:href="#bk"/><use transform="matrix(0.04938271604938272,0,0,0.04938271604938272,20.69135802469136,0)" xlink:href="#aO"/><use transform="matrix(0.04938271604938272,0,0,0.04938271604938272,30.567901234567906,0)" xlink:href="#bj"/><use transform="matrix(0.04938271604938272,0,0,0.04938271604938272,41.38271604938272,0)" xlink:href="#aW"/><use transform="matrix(0.04938271604938272,0,0,0.04938271604938272,52.19753086419754,0)" xlink:href="#aS"/></g><path fill="#333" d="M88-194c31-1 46 15 58 34l-1-101h50l1 261h-48c-2-10 0-23-3-31C134-8 116 4 84 4 32 4 16-41 15-95c0-56 19-97 73-99zm17 164c33 0 40-30 41-66 1-37-9-64-41-64s-38 30-39 65c0 43 13 65 39 65" id="bl"/><g id="J"><use transform="matrix(0.04938271604938272,0,0,0.04938271604938272,0,0)" xlink:href="#bl"/><use transform="matrix(0.04938271604938272,0,0,0.04938271604938272,10.814814814814815,0)" xlink:href="#aO"/><use transform="matrix(0.04938271604938272,0,0,0.04938271604938272,20.69135802469136,0)" xlink:href="#aU"/><use transform="matrix(0.04938271604938272,0,0,0.04938271604938272,26.567901234567902,0)" xlink:href="#aS"/><use transform="matrix(0.04938271604938272,0,0,0.04938271604938272,36.44444444444445,0)" xlink:href="#aY"/></g><g id="K"><use transform="matrix(0.06172839506172839,0,0,0.06172839506172839,0,0)" xlink:href="#au"/><use transform="matrix(0.06172839506172839,0,0,0.06172839506172839,12.345679012345679,0)" xlink:href="#az"/><use transform="matrix(0.06172839506172839,0,0,0.06172839506172839,24.691358024691358,0)" xlink:href="#aI"/><use transform="matrix(0.06172839506172839,0,0,0.06172839506172839,30.864197530864196,0)" xlink:href="#aw"/></g><g id="L"><use transform="matrix(0.04938271604938272,0,0,0.04938271604938272,0,0)" xlink:href="#aR"/><use transform="matrix(0.04938271604938272,0,0,0.04938271604938272,11.851851851851853,0)" xlink:href="#aS"/><use transform="matrix(0.04938271604938272,0,0,0.04938271604938272,21.7283950617284,0)" xlink:href="#aT"/><use transform="matrix(0.04938271604938272,0,0,0.04938271604938272,26.666666666666668,0)" xlink:href="#aS"/><use transform="matrix(0.04938271604938272,0,0,0.04938271604938272,36.543209876543216,0)" xlink:href="#aP"/><use transform="matrix(0.04938271604938272,0,0,0.04938271604938272,46.41975308641976,0)" xlink:href="#aU"/></g><g id="M"><use transform="matrix(0.04938271604938272,0,0,0.04938271604938272,0,0)" xlink:href="#aV"/><use transform="matrix(0.04938271604938272,0,0,0.04938271604938272,6.913580246913581,0)" xlink:href="#aS"/><use transform="matrix(0.04938271604938272,0,0,0.04938271604938272,16.790123456790127,0)" xlink:href="#aY"/><use transform="matrix(0.04938271604938272,0,0,0.04938271604938272,26.666666666666668,0)" xlink:href="#bi"/><use transform="matrix(0.04938271604938272,0,0,0.04938271604938272,37.48148148148149,0)" xlink:href="#aT"/><use transform="matrix(0.04938271604938272,0,0,0.04938271604938272,42.41975308641976,0)" xlink:href="#aU"/><use transform="matrix(0.04938271604938272,0,0,0.04938271604938272,48.296296296296305,0)" xlink:href="#aY"/></g><g id="N"><use transform="matrix(0.06172839506172839,0,0,0.06172839506172839,0,0)" xlink:href="#aE"/><use transform="matrix(0.06172839506172839,0,0,0.06172839506172839,7.345679012345679,0)" xlink:href="#aw"/><use transform="matrix(0.06172839506172839,0,0,0.06172839506172839,19.691358024691358,0)" xlink:href="#aJ"/><use transform="matrix(0.06172839506172839,0,0,0.06172839506172839,30.80246913580247,0)" xlink:href="#aC"/><use transform="matrix(0.06172839506172839,0,0,0.06172839506172839,43.148148148148145,0)" xlink:href="#av"/><use transform="matrix(0.06172839506172839,0,0,0.06172839506172839,48.02469135802469,0)" xlink:href="#aI"/><use transform="matrix(0.06172839506172839,0,0,0.06172839506172839,54.19753086419753,0)" xlink:href="#aJ"/></g><g id="O"><use transform="matrix(0.06172839506172839,0,0,0.06172839506172839,0,0)" xlink:href="#aw"/><use transform="matrix(0.06172839506172839,0,0,0.06172839506172839,12.345679012345679,0)" xlink:href="#au"/><use transform="matrix(0.06172839506172839,0,0,0.06172839506172839,24.691358024691358,0)" xlink:href="#aA"/><use transform="matrix(0.06172839506172839,0,0,0.06172839506172839,29.5679012345679,0)" xlink:href="#aI"/><use transform="matrix(0.06172839506172839,0,0,0.06172839506172839,35.74074074074074,0)" xlink:href="#aA"/><use transform="matrix(0.06172839506172839,0,0,0.06172839506172839,40.617283950617285,0)" xlink:href="#aB"/><use transform="matrix(0.06172839506172839,0,0,0.06172839506172839,52.96296296296296,0)" xlink:href="#aF"/></g><path fill="#333" d="M199 0l-22-63H83L61 0H9l90-248h61L250 0h-51zm-33-102l-36-108c-10 38-24 72-36 108h72" id="bm"/><g id="P"><use transform="matrix(0.04938271604938272,0,0,0.04938271604938272,0,0)" xlink:href="#bm"/><use transform="matrix(0.04938271604938272,0,0,0.04938271604938272,12.790123456790125,0)" xlink:href="#bl"/><use transform="matrix(0.04938271604938272,0,0,0.04938271604938272,23.60493827160494,0)" xlink:href="#bl"/></g><g id="Q"><use transform="matrix(0.04938271604938272,0,0,0.04938271604938272,0,0)" xlink:href="#aU"/><use transform="matrix(0.04938271604938272,0,0,0.04938271604938272,5.8765432098765435,0)" xlink:href="#aS"/><use transform="matrix(0.04938271604938272,0,0,0.04938271604938272,15.753086419753087,0)" xlink:href="#aO"/><use transform="matrix(0.04938271604938272,0,0,0.04938271604938272,25.629629629629633,0)" xlink:href="#aZ"/></g><g id="R"><use transform="matrix(0.04938271604938272,0,0,0.04938271604938272,0,0)" xlink:href="#aU"/><use transform="matrix(0.04938271604938272,0,0,0.04938271604938272,5.8765432098765435,0)" xlink:href="#bh"/></g><g id="S"><use transform="matrix(0.04938271604938272,0,0,0.04938271604938272,0,0)" xlink:href="#bl"/><use transform="matrix(0.04938271604938272,0,0,0.04938271604938272,10.814814814814815,0)" xlink:href="#aO"/><use transform="matrix(0.04938271604938272,0,0,0.04938271604938272,20.69135802469136,0)" xlink:href="#aU"/><use transform="matrix(0.04938271604938272,0,0,0.04938271604938272,26.567901234567902,0)" xlink:href="#aO"/><use transform="matrix(0.04938271604938272,0,0,0.04938271604938272,36.44444444444445,0)" xlink:href="#aN"/><use transform="matrix(0.04938271604938272,0,0,0.04938271604938272,47.25925925925927,0)" xlink:href="#aO"/><use transform="matrix(0.04938271604938272,0,0,0.04938271604938272,57.135802469135804,0)" xlink:href="#aY"/><use transform="matrix(0.04938271604938272,0,0,0.04938271604938272,67.01234567901236,0)" xlink:href="#aS"/></g><path fill="#333" d="M67-125c0 53 21 87 73 88 37 1 54-22 65-47l45 17C233-25 199 4 140 4 58 4 20-42 15-125 8-235 124-281 211-232c18 10 29 29 36 50l-46 12c-8-25-30-41-62-41-52 0-71 34-72 86" id="bn"/><g id="T"><use transform="matrix(0.04938271604938272,0,0,0.04938271604938272,0,0)" xlink:href="#bn"/><use transform="matrix(0.04938271604938272,0,0,0.04938271604938272,12.790123456790125,0)" xlink:href="#aV"/><use transform="matrix(0.04938271604938272,0,0,0.04938271604938272,19.703703703703706,0)" xlink:href="#aS"/><use transform="matrix(0.04938271604938272,0,0,0.04938271604938272,29.58024691358025,0)" xlink:href="#aO"/><use transform="matrix(0.04938271604938272,0,0,0.04938271604938272,39.4567901234568,0)" xlink:href="#aU"/><use transform="matrix(0.04938271604938272,0,0,0.04938271604938272,45.33333333333334,0)" xlink:href="#aS"/></g><g id="U"><use transform="matrix(0.04938271604938272,0,0,0.04938271604938272,0,0)" xlink:href="#aU"/><use transform="matrix(0.04938271604938272,0,0,0.04938271604938272,5.8765432098765435,0)" xlink:href="#bh"/><use transform="matrix(0.04938271604938272,0,0,0.04938271604938272,16.691358024691358,0)" xlink:href="#bi"/><use transform="matrix(0.04938271604938272,0,0,0.04938271604938272,27.50617283950617,0)" xlink:href="#aV"/><use transform="matrix(0.04938271604938272,0,0,0.04938271604938272,34.41975308641975,0)" xlink:href="#bj"/><use transform="matrix(0.04938271604938272,0,0,0.04938271604938272,45.23456790123457,0)" xlink:href="#aO"/><use transform="matrix(0.04938271604938272,0,0,0.04938271604938272,55.111111111111114,0)" xlink:href="#aZ"/><use transform="matrix(0.04938271604938272,0,0,0.04938271604938272,70.91358024691358,0)" xlink:href="#aS"/><use transform="matrix(0.04938271604938272,0,0,0.04938271604938272,80.79012345679013,0)" xlink:href="#bj"/><use transform="matrix(0.04938271604938272,0,0,0.04938271604938272,91.60493827160494,0)" xlink:href="#aU"/></g><g id="V"><use transform="matrix(0.04938271604938272,0,0,0.04938271604938272,0,0)" xlink:href="#bd"/><use transform="matrix(0.04938271604938272,0,0,0.04938271604938272,10.814814814814815,0)" xlink:href="#aT"/><use transform="matrix(0.04938271604938272,0,0,0.04938271604938272,15.753086419753087,0)" xlink:href="#aO"/><use transform="matrix(0.04938271604938272,0,0,0.04938271604938272,25.629629629629633,0)" xlink:href="#be"/><use transform="matrix(0.04938271604938272,0,0,0.04938271604938272,35.50617283950618,0)" xlink:href="#aS"/><use transform="matrix(0.04938271604938272,0,0,0.04938271604938272,45.38271604938272,0)" xlink:href="#aV"/></g><g id="W"><use transform="matrix(0.04938271604938272,0,0,0.04938271604938272,0,0)" xlink:href="#aU"/><use transform="matrix(0.04938271604938272,0,0,0.04938271604938272,5.8765432098765435,0)" xlink:href="#bh"/></g><g id="X"><use transform="matrix(0.04938271604938272,0,0,0.04938271604938272,0,0)" xlink:href="#bl"/><use transform="matrix(0.04938271604938272,0,0,0.04938271604938272,10.814814814814815,0)" xlink:href="#aO"/><use transform="matrix(0.04938271604938272,0,0,0.04938271604938272,20.69135802469136,0)" xlink:href="#aU"/><use transform="matrix(0.04938271604938272,0,0,0.04938271604938272,26.567901234567902,0)" xlink:href="#aO"/><use transform="matrix(0.04938271604938272,0,0,0.04938271604938272,36.44444444444445,0)" xlink:href="#aN"/><use transform="matrix(0.04938271604938272,0,0,0.04938271604938272,47.25925925925927,0)" xlink:href="#aO"/><use transform="matrix(0.04938271604938272,0,0,0.04938271604938272,57.135802469135804,0)" xlink:href="#aY"/><use transform="matrix(0.04938271604938272,0,0,0.04938271604938272,67.01234567901236,0)" xlink:href="#aS"/></g><g id="Y"><use transform="matrix(0.04938271604938272,0,0,0.04938271604938272,0,0)" xlink:href="#aU"/><use transform="matrix(0.04938271604938272,0,0,0.04938271604938272,5.8765432098765435,0)" xlink:href="#aS"/><use transform="matrix(0.04938271604938272,0,0,0.04938271604938272,15.753086419753087,0)" xlink:href="#aO"/><use transform="matrix(0.04938271604938272,0,0,0.04938271604938272,25.629629629629633,0)" xlink:href="#aZ"/></g><g id="Z"><use transform="matrix(0.04938271604938272,0,0,0.04938271604938272,0,0)" xlink:href="#aP"/><use transform="matrix(0.04938271604938272,0,0,0.04938271604938272,9.876543209876544,0)" xlink:href="#aO"/><use transform="matrix(0.04938271604938272,0,0,0.04938271604938272,19.75308641975309,0)" xlink:href="#bd"/><use transform="matrix(0.04938271604938272,0,0,0.04938271604938272,30.567901234567906,0)" xlink:href="#aU"/><use transform="matrix(0.04938271604938272,0,0,0.04938271604938272,36.44444444444445,0)" xlink:href="#aO"/><use transform="matrix(0.04938271604938272,0,0,0.04938271604938272,46.320987654320994,0)" xlink:href="#aX"/><use transform="matrix(0.04938271604938272,0,0,0.04938271604938272,51.25925925925927,0)" xlink:href="#bj"/></g><path fill="#333" d="M121-226c-27-7-43 5-38 36h38v33H83V0H34v-157H6v-33h28c-9-59 32-81 87-68v32" id="bo"/><g id="aa"><use transform="matrix(0.04938271604938272,0,0,0.04938271604938272,0,0)" xlink:href="#aX"/><use transform="matrix(0.04938271604938272,0,0,0.04938271604938272,4.938271604938272,0)" xlink:href="#bj"/><use transform="matrix(0.04938271604938272,0,0,0.04938271604938272,15.753086419753087,0)" xlink:href="#bo"/><use transform="matrix(0.04938271604938272,0,0,0.04938271604938272,21.62962962962963,0)" xlink:href="#bh"/></g><g id="ab"><use transform="matrix(0.04938271604938272,0,0,0.04938271604938272,0,0)" xlink:href="#aU"/><use transform="matrix(0.04938271604938272,0,0,0.04938271604938272,5.8765432098765435,0)" xlink:href="#bh"/></g><path fill="#333" d="M238-95c0 69-44 99-111 99C63 4 22-25 22-93v-155h51v151c-1 38 19 59 55 60 90 1 49-130 58-211h52v153" id="bp"/><g id="ac"><use transform="matrix(0.04938271604938272,0,0,0.04938271604938272,0,0)" xlink:href="#bp"/><use transform="matrix(0.04938271604938272,0,0,0.04938271604938272,12.790123456790125,0)" xlink:href="#bd"/><use transform="matrix(0.04938271604938272,0,0,0.04938271604938272,23.60493827160494,0)" xlink:href="#bl"/><use transform="matrix(0.04938271604938272,0,0,0.04938271604938272,34.41975308641975,0)" xlink:href="#aO"/><use transform="matrix(0.04938271604938272,0,0,0.04938271604938272,44.2962962962963,0)" xlink:href="#aU"/><use transform="matrix(0.04938271604938272,0,0,0.04938271604938272,50.17283950617284,0)" xlink:href="#aS"/></g><g id="ad"><use transform="matrix(0.04938271604938272,0,0,0.04938271604938272,0,0)" xlink:href="#bl"/><use transform="matrix(0.04938271604938272,0,0,0.04938271604938272,10.814814814814815,0)" xlink:href="#aO"/><use transform="matrix(0.04938271604938272,0,0,0.04938271604938272,20.69135802469136,0)" xlink:href="#aU"/><use transform="matrix(0.04938271604938272,0,0,0.04938271604938272,26.567901234567902,0)" xlink:href="#aS"/><use transform="matrix(0.04938271604938272,0,0,0.04938271604938272,36.44444444444445,0)" xlink:href="#aY"/></g><g id="ae"><use transform="matrix(0.04938271604938272,0,0,0.04938271604938272,0,0)" xlink:href="#aX"/><use transform="matrix(0.04938271604938272,0,0,0.04938271604938272,4.938271604938272,0)" xlink:href="#bj"/></g><g id="af"><use transform="matrix(0.04938271604938272,0,0,0.04938271604938272,0,0)" xlink:href="#aY"/><use transform="matrix(0.04938271604938272,0,0,0.04938271604938272,9.876543209876544,0)" xlink:href="#be"/><use transform="matrix(0.04938271604938272,0,0,0.04938271604938272,19.75308641975309,0)" xlink:href="#aY"/><use transform="matrix(0.04938271604938272,0,0,0.04938271604938272,29.629629629629633,0)" xlink:href="#aU"/><use transform="matrix(0.04938271604938272,0,0,0.04938271604938272,35.50617283950618,0)" xlink:href="#aS"/><use transform="matrix(0.04938271604938272,0,0,0.04938271604938272,45.38271604938272,0)" xlink:href="#aZ"/></g><g id="ag"><use transform="matrix(0.04938271604938272,0,0,0.04938271604938272,0,0)" xlink:href="#aV"/><use transform="matrix(0.04938271604938272,0,0,0.04938271604938272,6.913580246913581,0)" xlink:href="#aS"/><use transform="matrix(0.04938271604938272,0,0,0.04938271604938272,16.790123456790127,0)" xlink:href="#aY"/><use transform="matrix(0.04938271604938272,0,0,0.04938271604938272,26.666666666666668,0)" xlink:href="#bi"/><use transform="matrix(0.04938271604938272,0,0,0.04938271604938272,37.48148148148149,0)" xlink:href="#aT"/><use transform="matrix(0.04938271604938272,0,0,0.04938271604938272,42.41975308641976,0)" xlink:href="#aU"/><use transform="matrix(0.04938271604938272,0,0,0.04938271604938272,48.296296296296305,0)" xlink:href="#aY"/></g><g id="ah"><use transform="matrix(0.04938271604938272,0,0,0.04938271604938272,0,0)" xlink:href="#aX"/><use transform="matrix(0.04938271604938272,0,0,0.04938271604938272,4.938271604938272,0)" xlink:href="#bj"/></g><g id="ai"><use transform="matrix(0.04938271604938272,0,0,0.04938271604938272,0,0)" xlink:href="#bl"/><use transform="matrix(0.04938271604938272,0,0,0.04938271604938272,10.814814814814815,0)" xlink:href="#aO"/><use transform="matrix(0.04938271604938272,0,0,0.04938271604938272,20.69135802469136,0)" xlink:href="#aU"/><use transform="matrix(0.04938271604938272,0,0,0.04938271604938272,26.567901234567902,0)" xlink:href="#aO"/><use transform="matrix(0.04938271604938272,0,0,0.04938271604938272,36.44444444444445,0)" xlink:href="#aN"/><use transform="matrix(0.04938271604938272,0,0,0.04938271604938272,47.25925925925927,0)" xlink:href="#aO"/><use transform="matrix(0.04938271604938272,0,0,0.04938271604938272,57.135802469135804,0)" xlink:href="#aY"/><use transform="matrix(0.04938271604938272,0,0,0.04938271604938272,67.01234567901236,0)" xlink:href="#aS"/></g><g id="aj"><use transform="matrix(0.04938271604938272,0,0,0.04938271604938272,0,0)" xlink:href="#aR"/><use transform="matrix(0.04938271604938272,0,0,0.04938271604938272,11.851851851851853,0)" xlink:href="#aS"/><use transform="matrix(0.04938271604938272,0,0,0.04938271604938272,21.7283950617284,0)" xlink:href="#aT"/><use transform="matrix(0.04938271604938272,0,0,0.04938271604938272,26.666666666666668,0)" xlink:href="#aS"/><use transform="matrix(0.04938271604938272,0,0,0.04938271604938272,36.543209876543216,0)" xlink:href="#aP"/><use transform="matrix(0.04938271604938272,0,0,0.04938271604938272,46.41975308641976,0)" xlink:href="#aU"/><use transform="matrix(0.04938271604938272,0,0,0.04938271604938272,52.2962962962963,0)" xlink:href="#aS"/><use transform="matrix(0.04938271604938272,0,0,0.04938271604938272,62.17283950617284,0)" xlink:href="#bl"/></g><g id="ak"><use transform="matrix(0.04938271604938272,0,0,0.04938271604938272,0,0)" xlink:href="#aV"/><use transform="matrix(0.04938271604938272,0,0,0.04938271604938272,6.913580246913581,0)" xlink:href="#aS"/><use transform="matrix(0.04938271604938272,0,0,0.04938271604938272,16.790123456790127,0)" xlink:href="#aY"/><use transform="matrix(0.04938271604938272,0,0,0.04938271604938272,26.666666666666668,0)" xlink:href="#bi"/><use transform="matrix(0.04938271604938272,0,0,0.04938271604938272,37.48148148148149,0)" xlink:href="#aT"/><use transform="matrix(0.04938271604938272,0,0,0.04938271604938272,42.41975308641976,0)" xlink:href="#aU"/></g><g id="al"><use transform="matrix(0.04938271604938272,0,0,0.04938271604938272,0,0)" xlink:href="#aV"/><use transform="matrix(0.04938271604938272,0,0,0.04938271604938272,6.913580246913581,0)" xlink:href="#aS"/><use transform="matrix(0.04938271604938272,0,0,0.04938271604938272,16.790123456790127,0)" xlink:href="#aW"/><use transform="matrix(0.04938271604938272,0,0,0.04938271604938272,27.604938271604947,0)" xlink:href="#aX"/><use transform="matrix(0.04938271604938272,0,0,0.04938271604938272,32.543209876543216,0)" xlink:href="#aY"/><use transform="matrix(0.04938271604938272,0,0,0.04938271604938272,42.41975308641976,0)" xlink:href="#aU"/><use transform="matrix(0.04938271604938272,0,0,0.04938271604938272,48.296296296296305,0)" xlink:href="#aV"/><use transform="matrix(0.04938271604938272,0,0,0.04938271604938272,55.209876543209894,0)" xlink:href="#aO"/><use transform="matrix(0.04938271604938272,0,0,0.04938271604938272,65.08641975308643,0)" xlink:href="#aU"/><use transform="matrix(0.04938271604938272,0,0,0.04938271604938272,70.96296296296298,0)" xlink:href="#aX"/><use transform="matrix(0.04938271604938272,0,0,0.04938271604938272,75.90123456790124,0)" xlink:href="#bh"/><use transform="matrix(0.04938271604938272,0,0,0.04938271604938272,86.71604938271605,0)" xlink:href="#bj"/></g><path fill="#3a414a" d="M233-177c-1 41-23 64-60 70L243 0h-38l-65-103H63V0H30v-248c88 3 205-21 203 71zM63-129c60-2 137 13 137-47 0-61-80-42-137-45v92" id="bq"/><g id="am"><use transform="matrix(0.06172839506172839,0,0,0.06172839506172839,0,0)" xlink:href="#bq"/><use transform="matrix(0.06172839506172839,0,0,0.06172839506172839,15.987654320987653,0)" xlink:href="#aw"/><use transform="matrix(0.06172839506172839,0,0,0.06172839506172839,28.333333333333332,0)" xlink:href="#aJ"/><use transform="matrix(0.06172839506172839,0,0,0.06172839506172839,39.44444444444444,0)" xlink:href="#aC"/><use transform="matrix(0.06172839506172839,0,0,0.06172839506172839,51.79012345679012,0)" xlink:href="#av"/><use transform="matrix(0.06172839506172839,0,0,0.06172839506172839,56.666666666666664,0)" xlink:href="#aI"/><use transform="matrix(0.06172839506172839,0,0,0.06172839506172839,62.839506172839506,0)" xlink:href="#aJ"/></g><g id="an"><use transform="matrix(0.06172839506172839,0,0,0.06172839506172839,0,0)" xlink:href="#aE"/><use transform="matrix(0.06172839506172839,0,0,0.06172839506172839,7.345679012345679,0)" xlink:href="#aw"/><use transform="matrix(0.06172839506172839,0,0,0.06172839506172839,19.691358024691358,0)" xlink:href="#aF"/><use transform="matrix(0.06172839506172839,0,0,0.06172839506172839,32.03703703703704,0)" xlink:href="#aA"/><use transform="matrix(0.06172839506172839,0,0,0.06172839506172839,36.91358024691358,0)" xlink:href="#aJ"/><use transform="matrix(0.06172839506172839,0,0,0.06172839506172839,48.0246913580247,0)" xlink:href="#aI"/><use transform="matrix(0.06172839506172839,0,0,0.06172839506172839,54.19753086419754,0)" xlink:href="#aE"/><use transform="matrix(0.06172839506172839,0,0,0.06172839506172839,61.543209876543216,0)" xlink:href="#az"/><use transform="matrix(0.06172839506172839,0,0,0.06172839506172839,73.8888888888889,0)" xlink:href="#aI"/><use transform="matrix(0.06172839506172839,0,0,0.06172839506172839,80.06172839506173,0)" xlink:href="#aA"/><use transform="matrix(0.06172839506172839,0,0,0.06172839506172839,84.93827160493828,0)" xlink:href="#bc"/><use transform="matrix(0.06172839506172839,0,0,0.06172839506172839,97.28395061728396,0)" xlink:href="#aB"/></g><g id="ao"><use transform="matrix(0.04938271604938272,0,0,0.04938271604938272,0,0)" xlink:href="#aV"/><use transform="matrix(0.04938271604938272,0,0,0.04938271604938272,6.913580246913581,0)" xlink:href="#aS"/><use transform="matrix(0.04938271604938272,0,0,0.04938271604938272,16.790123456790127,0)" xlink:href="#aY"/><use transform="matrix(0.04938271604938272,0,0,0.04938271604938272,26.666666666666668,0)" xlink:href="#bi"/><use transform="matrix(0.04938271604938272,0,0,0.04938271604938272,37.48148148148149,0)" xlink:href="#aT"/><use transform="matrix(0.04938271604938272,0,0,0.04938271604938272,42.41975308641976,0)" xlink:href="#aU"/><use transform="matrix(0.04938271604938272,0,0,0.04938271604938272,48.296296296296305,0)" xlink:href="#aY"/></g><g id="ap"><use transform="matrix(0.04938271604938272,0,0,0.04938271604938272,0,0)" xlink:href="#aR"/><use transform="matrix(0.04938271604938272,0,0,0.04938271604938272,11.851851851851853,0)" xlink:href="#aU"/><use transform="matrix(0.04938271604938272,0,0,0.04938271604938272,17.728395061728396,0)" xlink:href="#aO"/><use transform="matrix(0.04938271604938272,0,0,0.04938271604938272,27.60493827160494,0)" xlink:href="#aU"/><use transform="matrix(0.04938271604938272,0,0,0.04938271604938272,33.48148148148148,0)" xlink:href="#aY"/></g><g id="aq"><use transform="matrix(0.04938271604938272,0,0,0.04938271604938272,0,0)" xlink:href="#aY"/><use transform="matrix(0.04938271604938272,0,0,0.04938271604938272,9.876543209876544,0)" xlink:href="#aS"/><use transform="matrix(0.04938271604938272,0,0,0.04938271604938272,19.75308641975309,0)" xlink:href="#aT"/><use transform="matrix(0.04938271604938272,0,0,0.04938271604938272,24.69135802469136,0)" xlink:href="#aS"/><use transform="matrix(0.04938271604938272,0,0,0.04938271604938272,34.567901234567906,0)" xlink:href="#aP"/><use transform="matrix(0.04938271604938272,0,0,0.04938271604938272,44.44444444444445,0)" xlink:href="#aU"/><use transform="matrix(0.04938271604938272,0,0,0.04938271604938272,50.320987654320994,0)" xlink:href="#aS"/><use transform="matrix(0.04938271604938272,0,0,0.04938271604938272,60.19753086419754,0)" xlink:href="#bl"/></g><g id="ar"><use transform="matrix(0.06172839506172839,0,0,0.06172839506172839,0,0)" xlink:href="#aJ"/><use transform="matrix(0.06172839506172839,0,0,0.06172839506172839,11.11111111111111,0)" xlink:href="#aw"/><use transform="matrix(0.06172839506172839,0,0,0.06172839506172839,23.45679012345679,0)" xlink:href="#av"/><use transform="matrix(0.06172839506172839,0,0,0.06172839506172839,28.333333333333336,0)" xlink:href="#aw"/><use transform="matrix(0.06172839506172839,0,0,0.06172839506172839,40.67901234567901,0)" xlink:href="#aL"/><use transform="matrix(0.06172839506172839,0,0,0.06172839506172839,51.79012345679013,0)" xlink:href="#aI"/><use transform="matrix(0.06172839506172839,0,0,0.06172839506172839,57.96296296296297,0)" xlink:href="#aw"/><use transform="matrix(0.06172839506172839,0,0,0.06172839506172839,70.30864197530865,0)" xlink:href="#au"/></g><g id="as"><use transform="matrix(0.06172839506172839,0,0,0.06172839506172839,0,0)" xlink:href="#aJ"/><use transform="matrix(0.06172839506172839,0,0,0.06172839506172839,11.11111111111111,0)" xlink:href="#aI"/><use transform="matrix(0.06172839506172839,0,0,0.06172839506172839,17.28395061728395,0)" xlink:href="#az"/><use transform="matrix(0.06172839506172839,0,0,0.06172839506172839,29.629629629629626,0)" xlink:href="#aI"/><use transform="matrix(0.06172839506172839,0,0,0.06172839506172839,35.80246913580247,0)" xlink:href="#aJ"/></g></defs></g></svg>