<svg xmlns="http://www.w3.org/2000/svg" xmlns:xlink="http://www.w3.org/1999/xlink" xmlns:lucid="lucid" width="1680" height="1140"><g transform="translate(-20 -1360)" lucid:page-tab-id="0_0"><path d="M0 1258.83h1870.87v1322.84H0z" fill="#fff"/><path d="M840.43 1566a6 6 0 0 1 6-6h148a6 6 0 0 1 6 6v88a6 6 0 0 1-6 6h-148a6 6 0 0 1-6-6z" stroke="#3a414a" fill="#fff"/><use xlink:href="#a" transform="matrix(1,0,0,1,852.4330708661416,1572) translate(16.858024691358025 29.65277777777778)"/><use xlink:href="#b" transform="matrix(1,0,0,1,852.4330708661416,1572) translate(58.77160493827161 29.65277777777778)"/><use xlink:href="#c" transform="matrix(1,0,0,1,852.4330708661416,1572) translate(71.11728395061729 29.65277777777778)"/><use xlink:href="#d" transform="matrix(1,0,0,1,852.4330708661416,1572) translate(40.25308641975309 56.31944444444445)"/><path d="M900 1410c0 16.57-13.43 30-30 30s-30-13.43-30-30 13.43-30 30-30 30 13.43 30 30z" stroke="#3a414a" fill="#3a414a"/><path d="M870 1441v102.18" stroke="#3a414a" fill="none"/><path d="M870 1440.5l.5-.02v.53h-1v-.54z" stroke="#3a414a" stroke-width=".05" fill="#3a414a"/><path d="M870 1557.94l-4.64-14.26h9.28z" stroke="#3a414a" fill="#3a414a"/><path d="M839.45 1588.14H688.7l-.9.06-.83.2-.8.34-.73.45-.66.55-.56.65-.45.74-.33.8-.2.82-.07 350.38h-1l.07-350.5.24-1 .4-.96.53-.87.67-.76.78-.66.87-.54.94-.4 1-.23 1-.06h150.8z" stroke="#3a414a" stroke-width=".05" fill="#3a414a"/><path d="M839.95 1588.14h-.5v-1h.5z" fill="#3a414a"/><path d="M839.98 1588.16h-.57v-1.05h.58zm-.52-1v.95h.47v-.94z" stroke="#3a414a" stroke-width=".05" fill="#3a414a"/><path d="M682.67 1957.9l-4.64-14.26h9.27z" fill="#3a414a"/><path d="M682.67 1959.52l-5.33-16.38H688zm-3.95-15.38l3.95 12.14 3.94-12.14z" stroke="#3a414a" stroke-width=".05" fill="#3a414a"/><path d="M500 1966a6 6 0 0 1 6-6h243.43a6 6 0 0 1 6 6v108a6 6 0 0 1-6 6H506a6 6 0 0 1-6-6z" stroke="#3a414a" fill="#fff"/><use xlink:href="#e" transform="matrix(1,0,0,1,512,1972) translate(9.364197530864203 53.77777777777778)"/><use xlink:href="#f" transform="matrix(1,0,0,1,512,1972) translate(51.277777777777786 53.77777777777778)"/><use xlink:href="#g" transform="matrix(1,0,0,1,512,1972) translate(63.62345679012346 53.77777777777778)"/><use xlink:href="#h" transform="matrix(1,0,0,1,512,1972) translate(167.14197530864197 53.77777777777778)"/><path d="M1001.37 1580.08h161.76" stroke="#3a414a" fill="none"/><path d="M1001.38 1580.58h-.5v-1h.5z" stroke="#3a414a" stroke-width=".05" fill="#3a414a"/><path d="M1177.9 1580.08l-14.27 4.63v-9.26z" stroke="#3a414a" fill="#3a414a"/><path d="M1180 1566a6 6 0 0 1 6-6h128a6 6 0 0 1 6 6v68a6 6 0 0 1-6 6h-128a6 6 0 0 1-6-6z" stroke="#3a414a" fill="#fff"/><use xlink:href="#e" transform="matrix(1,0,0,1,1192,1572) translate(33.956790123456784 21.27777777777778)"/><use xlink:href="#i" transform="matrix(1,0,0,1,1192,1572) translate(75.87037037037037 21.27777777777778)"/><use xlink:href="#j" transform="matrix(1,0,0,1,1192,1572) translate(1.8580246913580254 47.94444444444444)"/><use xlink:href="#k" transform="matrix(1,0,0,1,1192,1572) translate(58.648148148148145 47.94444444444444)"/><path d="M972.6 1660.94v123.8a6 6 0 0 0 6 6h264.53" stroke="#3a414a" fill="none"/><path d="M973.1 1660.95h-1v-.5h1z" stroke="#3a414a" stroke-width=".05" fill="#3a414a"/><path d="M1257.9 1790.75l-14.27 4.64v-9.28z" stroke="#3a414a" fill="#3a414a"/><path d="M1260 1774a6 6 0 0 1 6-6h148a6 6 0 0 1 6 6v92a6 6 0 0 1-6 6h-148a6 6 0 0 1-6-6z" stroke="#3a414a" fill="#fff"/><use xlink:href="#e" transform="matrix(1,0,0,1,1272,1780) translate(13.771604938271608 30.27777777777778)"/><use xlink:href="#f" transform="matrix(1,0,0,1,1272,1780) translate(55.68518518518519 30.27777777777778)"/><use xlink:href="#l" transform="matrix(1,0,0,1,1272,1780) translate(68.03086419753086 30.27777777777778)"/><use xlink:href="#m" transform="matrix(1,0,0,1,1272,1780) translate(1.3950617283950635 56.94444444444445)"/><use xlink:href="#n" transform="matrix(1,0,0,1,1272,1780) translate(79.11111111111111 56.94444444444445)"/><path d="M733.83 1959h-1v-114.66h1zm89.78-322.56l-85.15.07-.82.2-.8.34-.73.45-.65.55-.57.66-.45.74-.33.8-.2.84-.07.88V1823h-1v-181.08l.08-1 .25-1 .4-.93.52-.88.67-.78.77-.66.88-.53.94-.4 1.02-.24 85.27-.06z" stroke="#3a414a" stroke-width=".05" fill="#3a414a"/><path d="M733.83 1959.5h-1v-.5h1z" fill="#3a414a"/><path d="M733.86 1959.53h-1.05v-.56h1.06zm-1-.5v.45h.95v-.46z" stroke="#3a414a" stroke-width=".05" fill="#3a414a"/><path d="M838.37 1635.94l-14.26 4.64v-9.28z" fill="#3a414a"/><path d="M840 1635.94l-16.4 5.32v-10.64zm-15.4 3.95l12.16-3.96-12.15-3.95z" stroke="#3a414a" stroke-width=".05" fill="#3a414a"/><use xlink:href="#o" transform="matrix(1,0,0,1,712.1232561119859,1823.0052751764204) translate(0 14.222222222222223)"/><path d="M1259.06 1846.2H926.43a6 6 0 0 1-6-6v-163.35" stroke="#3a414a" fill="none"/><path d="M1259.56 1846.7h-.52v-1h.52z" stroke="#3a414a" stroke-width=".05" fill="#3a414a"/><path d="M920.43 1662.08l4.64 14.27h-9.27z" stroke="#3a414a" fill="#3a414a"/><use xlink:href="#o" transform="matrix(1,0,0,1,1030.7901234567898,1850.2043223500548) translate(0 14.222222222222223)"/><path d="M1179.06 1625.67H1017.3" stroke="#3a414a" fill="none"/><path d="M1179.56 1626.17h-.5v-1h.5z" stroke="#3a414a" stroke-width=".05" fill="#3a414a"/><path d="M1002.53 1625.67l14.26-4.63v9.27z" stroke="#3a414a" fill="#3a414a"/><use xlink:href="#o" transform="matrix(1,0,0,1,1069.0268901312504,1629.6741213834882) translate(0 14.222222222222223)"/><path d="M607.16 1959.04h-1v-135.9h1zm0-199.9h-1v-222.32h1z" stroke="#3a414a" stroke-width=".05" fill="#3a414a"/><path d="M607.16 1959.54h-1v-.5h1z" fill="#3a414a"/><path d="M607.2 1959.57h-1.06v-.56h1.05zm-1-.5v.45h.94v-.46z" stroke="#3a414a" stroke-width=".05" fill="#3a414a"/><path d="M611.3 1536.32h-9.27l4.63-14.27z" fill="#3a414a"/><path d="M612 1536.82h-10.66l5.32-16.4zm-9.3-1h7.9l-3.94-12.15z" stroke="#3a414a" stroke-width=".05" fill="#3a414a"/><use xlink:href="#p" transform="matrix(1,0,0,1,574.1188310693321,1759.1533757101051) translate(6.400061728395066 14.222222222222223)"/><use xlink:href="#q" transform="matrix(1,0,0,1,574.1188310693321,1759.1533757101051) translate(0.005000000000002558 35.55555555555556)"/><use xlink:href="#r" transform="matrix(1,0,0,1,574.1188310693321,1759.1533757101051) translate(11.832160493827168 56.88888888888889)"/><path d="M410.43 1446a6 6 0 0 1 6-6h208a6 6 0 0 1 6 6v68a6 6 0 0 1-6 6h-208a6 6 0 0 1-6-6z" stroke="#3a414a" fill="#fff"/><use xlink:href="#s" transform="matrix(1,0,0,1,422.43307086614163,1452) translate(33.925925925925924 21.27777777777778)"/><use xlink:href="#t" transform="matrix(1,0,0,1,422.43307086614163,1452) translate(112.75308641975307 21.27777777777778)"/><use xlink:href="#u" transform="matrix(1,0,0,1,422.43307086614163,1452) translate(12.351851851851848 47.94444444444444)"/><use xlink:href="#d" transform="matrix(1,0,0,1,422.43307086614163,1452) translate(128.15432098765433 47.94444444444444)"/><path d="M526.1 2256.86l-.08 1-.24 1-.4.93-.52.86-.66.78-.78.66-.87.53-.94.4-1 .24-243.78.07v-1l243.66-.07.82-.2.8-.33.73-.45.66-.57.55-.66.45-.73.33-.8.2-.84.07-.88v-68.4h1zm0-132.43h-1V2081h1z" stroke="#3a414a" stroke-width=".05" fill="#3a414a"/><path d="M526.1 2081h-1v-.5h1z" fill="#3a414a"/><path d="M526.12 2081.03h-1.05v-.56h1.05zm-1-.5v.45h.95v-.46z" stroke="#3a414a" stroke-width=".05" fill="#3a414a"/><path d="M276.32 2267.48l-14.26-4.64 14.26-4.64z" fill="#3a414a"/><path d="M276.82 2268.16l-16.38-5.32 16.38-5.32zm-13.15-5.32l12.15 3.95v-7.9z" stroke="#3a414a" stroke-width=".05" fill="#3a414a"/><use xlink:href="#v" transform="matrix(1,0,0,1,493.05508735677074,2124.434645669291) translate(6.400061728395066 14.222222222222223)"/><use xlink:href="#w" transform="matrix(1,0,0,1,493.05508735677074,2124.434645669291) translate(0.005000000000002558 35.55555555555556)"/><use xlink:href="#x" transform="matrix(1,0,0,1,493.05508735677074,2124.434645669291) translate(1.4617901234567938 56.88888888888889)"/><path d="M100 2246a6 6 0 0 1 6-6h148a6 6 0 0 1 6 6v108a6 6 0 0 1-6 6H106a6 6 0 0 1-6-6z" stroke="#3a414a" fill="#fff"/><use xlink:href="#y" transform="matrix(1,0,0,1,112,2252) translate(31.672839506172842 26.77777777777778)"/><use xlink:href="#z" transform="matrix(1,0,0,1,112,2252) translate(15.623456790123456 53.44444444444445)"/><use xlink:href="#A" transform="matrix(1,0,0,1,112,2252) translate(82.16666666666666 53.44444444444445)"/><use xlink:href="#B" transform="matrix(1,0,0,1,112,2252) translate(45.839506172839506 80.11111111111111)"/><path d="M347.23 1986h-130.4v-1h130.4zm151.78 0h-42.23v-1H499z" stroke="#3a414a" stroke-width=".05" fill="#3a414a"/><path d="M499.5 1986h-.5v-1h.5z" fill="#3a414a"/><path d="M499.54 1986.03h-.56v-1.05h.56zm-.5-1v.95h.45v-.95z" stroke="#3a414a" stroke-width=".05" fill="#3a414a"/><path d="M216.33 1990.14l-14.27-4.64 14.27-4.63z" fill="#3a414a"/><path d="M216.83 1990.83l-16.4-5.33 16.4-5.32zm-13.15-5.33l12.15 3.95v-7.9z" stroke="#3a414a" stroke-width=".05" fill="#3a414a"/><use xlink:href="#C" transform="matrix(1,0,0,1,347.2345679012345,1964.1710249227287) translate(0.005000000000002558 14.222222222222223)"/><use xlink:href="#D" transform="matrix(1,0,0,1,347.2345679012345,1964.1710249227287) translate(57.23956790123458 14.222222222222223)"/><use xlink:href="#E" transform="matrix(1,0,0,1,347.2345679012345,1964.1710249227287) translate(6.0296913580247065 35.55555555555556)"/><path d="M40 1964.08a6 6 0 0 1 6-6h148a6 6 0 0 1 6 6v108a6 6 0 0 1-6 6H46a6 6 0 0 1-6-6z" stroke="#3a414a" fill="#fff"/><use xlink:href="#F" transform="matrix(1,0,0,1,52,1970.0754652302467) translate(3.925925925925924 26.77777777777778)"/><use xlink:href="#G" transform="matrix(1,0,0,1,52,1970.0754652302467) translate(70.4074074074074 26.77777777777778)"/><use xlink:href="#H" transform="matrix(1,0,0,1,52,1970.0754652302467) translate(11.888888888888893 53.44444444444445)"/><use xlink:href="#B" transform="matrix(1,0,0,1,52,1970.0754652302467) translate(45.839506172839506 80.11111111111111)"/><path d="M717.08 2363.13h-1v-168.3h1zm0-232.3h-1v-49.9h1z" stroke="#3a414a" stroke-width=".05" fill="#3a414a"/><path d="M717.08 2080.95h-1v-.5h1z" fill="#3a414a"/><path d="M717.1 2080.97h-1.04v-.56h1.05zm-1-.5v.45h.96v-.46z" stroke="#3a414a" stroke-width=".05" fill="#3a414a"/><path d="M716.58 2377.9l-4.63-14.27h9.27z" fill="#3a414a"/><path d="M716.58 2379.52l-5.32-16.4h10.65zm-3.94-15.4l3.94 12.16 3.95-12.15z" stroke="#3a414a" stroke-width=".05" fill="#3a414a"/><use xlink:href="#p" transform="matrix(1,0,0,1,685.546218145201,2130.834645669291) translate(4.893888888888888 14.222222222222223)"/><use xlink:href="#I" transform="matrix(1,0,0,1,685.546218145201,2130.834645669291) translate(0.004999999999999005 35.55555555555556)"/><use xlink:href="#J" transform="matrix(1,0,0,1,685.546218145201,2130.834645669291) translate(7.881543209876543 56.88888888888889)"/><path d="M624.35 2386a6 6 0 0 1 6-6h113a6 6 0 0 1 6 6v88a6 6 0 0 1-6 6h-113a6 6 0 0 1-6-6z" stroke="#3a414a" fill="#fff"/><use xlink:href="#y" transform="matrix(1,0,0,1,636.3495623687334,2392) translate(14.672839506172842 17.77777777777778)"/><use xlink:href="#K" transform="matrix(1,0,0,1,636.3495623687334,2392) translate(29.395061728395063 44.44444444444444)"/><use xlink:href="#L" transform="matrix(1,0,0,1,636.3495623687334,2392) translate(7.234567901234563 71.11111111111111)"/><path d="M784.96 1977.7h-28.6v-1h28.6zm153.22-.03l-82.98.03h-8.16v-1h8.16l82.98-.03z" stroke="#3a414a" stroke-width=".05" fill="#3a414a"/><path d="M756.38 1977.7h-.5v-1h.5z" fill="#3a414a"/><path d="M756.4 1977.72h-.56v-1.05h.57zm-.5-1v.95h.46v-.95z" stroke="#3a414a" stroke-width=".05" fill="#3a414a"/><path d="M952.95 1977.17l-14.27 4.64v-9.27z" fill="#3a414a"/><path d="M954.56 1977.17l-16.38 5.32v-10.65zm-15.38 3.95l12.15-3.95-12.15-3.95z" stroke="#3a414a" stroke-width=".05" fill="#3a414a"/><use xlink:href="#v" transform="matrix(1,0,0,1,784.9629629629629,1945.1969451412388) translate(4.893888888888888 14.222222222222223)"/><use xlink:href="#I" transform="matrix(1,0,0,1,784.9629629629629,1945.1969451412388) translate(0.004999999999999005 35.55555555555556)"/><use xlink:href="#M" transform="matrix(1,0,0,1,784.9629629629629,1945.1969451412388) translate(1.955617283950616 56.88888888888889)"/><path d="M955.06 1972.38a6 6 0 0 1 6-6h148a6 6 0 0 1 6 6v108a6 6 0 0 1-6 6h-148a6 6 0 0 1-6-6z" stroke="#3a414a" fill="#fff"/><use xlink:href="#y" transform="matrix(1,0,0,1,967.0604302477066,1978.3771137295005) translate(31.672839506172842 26.77777777777778)"/><use xlink:href="#N" transform="matrix(1,0,0,1,967.0604302477066,1978.3771137295005) translate(35.34567901234568 53.44444444444445)"/><use xlink:href="#O" transform="matrix(1,0,0,1,967.0604302477066,1978.3771137295005) translate(10.098765432098766 80.11111111111111)"/><use xlink:href="#B" transform="matrix(1,0,0,1,967.0604302477066,1978.3771137295005) translate(81.58024691358025 80.11111111111111)"/><path d="M529.3 1943.18h-1v-242.92h1zm0-285.58h-1v-136.64h1z" stroke="#3a414a" stroke-width=".05" fill="#3a414a"/><path d="M529.3 1520.97h-1v-.5h1z" fill="#3a414a"/><path d="M529.33 1521h-1.05v-.56h1.05zm-1-.5v.45h.95v-.46z" stroke="#3a414a" stroke-width=".05" fill="#3a414a"/><path d="M528.8 1957.95l-4.63-14.27h9.27z" fill="#3a414a"/><path d="M528.8 1959.57l-5.32-16.4h10.64zm-3.95-15.4l3.95 12.16 3.95-12.15z" stroke="#3a414a" stroke-width=".05" fill="#3a414a"/><use xlink:href="#P" transform="matrix(1,0,0,1,479.541446519371,1657.5952205222086) translate(8.869197530864206 14.222222222222223)"/><use xlink:href="#Q" transform="matrix(1,0,0,1,479.541446519371,1657.5952205222086) translate(48.22722222222223 14.222222222222223)"/><use xlink:href="#R" transform="matrix(1,0,0,1,479.541446519371,1657.5952205222086) translate(0.005000000000002558 35.55555555555556)"/><use xlink:href="#S" transform="matrix(1,0,0,1,479.541446519371,1657.5952205222086) translate(21.634629629629632 35.55555555555556)"/><path d="M239.2 2052.67H201v-1h38.2zm243.97 0H396.8v-1h86.37z" stroke="#3a414a" stroke-width=".05" fill="#3a414a"/><path d="M201 2052.67h-.5v-1h.5z" fill="#3a414a"/><path d="M201.02 2052.7h-.56v-1.05h.56zm-.5-1v.95h.45v-.95z" stroke="#3a414a" stroke-width=".05" fill="#3a414a"/><path d="M497.94 2052.17l-14.27 4.64v-9.26z" fill="#3a414a"/><path d="M499.56 2052.17l-16.4 5.33v-10.65zm-15.4 3.95l12.16-3.95-12.15-3.95z" stroke="#3a414a" stroke-width=".05" fill="#3a414a"/><use xlink:href="#T" transform="matrix(1,0,0,1,239.18518518518516,2041.5048802787603) translate(0.0049999999999954525 14.222222222222223)"/><use xlink:href="#U" transform="matrix(1,0,0,1,239.18518518518516,2041.5048802787603) translate(60.153148148148155 14.222222222222223)"/><path d="M346 2300.5h-85.04v-1H346zm232.9-203.64l-.07 198.14-.25 1-.4.95-.52.87-.66.78-.78.66-.87.53-.94.38-.98.24-1 .08H541.1v-1h31.28l.88-.07.84-.2.8-.33.73-.45.66-.56.55-.67.45-.73.33-.8.2-.82.07-198.02z" stroke="#3a414a" stroke-width=".05" fill="#3a414a"/><path d="M260.98 2300.5h-.52v-1h.52z" fill="#3a414a"/><path d="M261 2300.53h-.56v-1.06h.56zm-.5-1v.94h.45v-.94z" stroke="#3a414a" stroke-width=".05" fill="#3a414a"/><path d="M583.04 2096.36h-9.27l4.63-14.26z" fill="#3a414a"/><path d="M583.72 2096.86h-10.64l5.32-16.38zm-9.27-1h7.9l-3.95-12.15z" stroke="#3a414a" stroke-width=".05" fill="#3a414a"/><use xlink:href="#P" transform="matrix(1,0,0,1,345.98902000993996,2289.3333333333335) translate(0 14.222222222222223)"/><use xlink:href="#V" transform="matrix(1,0,0,1,345.98902000993996,2289.3333333333335) translate(39.358024691358025 14.222222222222223)"/><use xlink:href="#W" transform="matrix(1,0,0,1,345.98902000993996,2289.3333333333335) translate(96.59259259259261 14.222222222222223)"/><use xlink:href="#X" transform="matrix(1,0,0,1,345.98902000993996,2289.3333333333335) translate(118.22222222222224 14.222222222222223)"/><path d="M655.93 2379.06h-1v-57.5h1zm0-142.83h-1v-139.4h1z" stroke="#3a414a" stroke-width=".05" fill="#3a414a"/><path d="M655.93 2379.56h-1v-.52h1z" fill="#3a414a"/><path d="M655.95 2379.58h-1.05v-.56h1.05zm-1-.5v.45h.95v-.46z" stroke="#3a414a" stroke-width=".05" fill="#3a414a"/><path d="M660.06 2096.34h-9.27l4.63-14.27z" fill="#3a414a"/><path d="M660.75 2096.84H650.1l5.33-16.38zm-9.27-1h7.9l-3.95-12.15z" stroke="#3a414a" stroke-width=".05" fill="#3a414a"/><g><use xlink:href="#Y" transform="matrix(1,0,0,1,624.832785181894,2236.2309328098067) translate(0.572901234567901 14.222222222222223)"/><use xlink:href="#Z" transform="matrix(1,0,0,1,624.832785181894,2236.2309328098067) translate(7.437098765432097 35.55555555555556)"/><use xlink:href="#aa" transform="matrix(1,0,0,1,624.832785181894,2236.2309328098067) translate(22.72104938271605 56.88888888888889)"/><use xlink:href="#ab" transform="matrix(1,0,0,1,624.832785181894,2236.2309328098067) translate(0.004999999999999005 78.22222222222223)"/></g><path d="M1391.03 1995.67l.1.07.03 107.4h-1l-.02-106.9-.1-.07v-12h1zm0-75.5h-1v-47.23h1z" stroke="#3a414a" stroke-width=".05" fill="#3a414a"/><path d="M1391.03 1872.95h-1v-.5h1z" fill="#3a414a"/><path d="M1391.06 1872.98H1390v-.57h1.06zm-1-.52v.47h.95v-.47z" stroke="#3a414a" stroke-width=".05" fill="#3a414a"/><path d="M1390.66 2117.9l-4.63-14.26h9.27z" fill="#3a414a"/><path d="M1390.66 2119.52l-5.32-16.38h10.64zm-3.95-15.38l3.96 12.15 3.95-12.16z" stroke="#3a414a" stroke-width=".05" fill="#3a414a"/><g><use xlink:href="#ac" transform="matrix(1,0,0,1,1341.769473127684,1920.1679790026244) translate(12.276604938271603 14.222222222222223)"/><use xlink:href="#ad" transform="matrix(1,0,0,1,1341.769473127684,1920.1679790026244) translate(24.62228395061728 35.55555555555556)"/><use xlink:href="#ae" transform="matrix(1,0,0,1,1341.769473127684,1920.1679790026244) translate(0.005000000000002558 56.88888888888889)"/></g><path d="M1240 2126a6 6 0 0 1 6-6h208a6 6 0 0 1 6 6v73.33a6 6 0 0 1-6 6h-208a6 6 0 0 1-6-6z" stroke="#3a414a" fill="#fff"/><g><use xlink:href="#s" transform="matrix(1,0,0,1,1252,2132) translate(21.611111111111114 21.65277777777778)"/><use xlink:href="#af" transform="matrix(1,0,0,1,1252,2132) translate(100.43827160493827 21.65277777777778)"/><use xlink:href="#u" transform="matrix(1,0,0,1,1252,2132) translate(17.938271604938265 48.31944444444444)"/><use xlink:href="#B" transform="matrix(1,0,0,1,1252,2132) translate(133.74074074074076 48.31944444444444)"/></g><path d="M1301.3 2119.05h-1v-50.32h1zm.1-230.18v107.36l-.1.08v29.76h-1v-30.22l.1-.1v-106.87z" stroke="#3a414a" stroke-width=".05" fill="#3a414a"/><path d="M1301.3 2119.55h-1v-.5h1z" fill="#3a414a"/><path d="M1301.33 2119.58h-1.05v-.56h1.05zm-1-.5v.45h.95v-.46z" stroke="#3a414a" stroke-width=".05" fill="#3a414a"/><path d="M1305.55 1888.37h-9.28l4.64-14.27z" fill="#3a414a"/><path d="M1306.23 1888.87h-10.64l5.3-16.4zm-9.27-1h7.9l-3.95-12.15z" stroke="#3a414a" stroke-width=".05" fill="#3a414a"/><g><use xlink:href="#P" transform="matrix(1,0,0,1,1251.5428953511032,2026.0588824736212) translate(0.4988271604938319 14.222222222222223)"/><use xlink:href="#ag" transform="matrix(1,0,0,1,1251.5428953511032,2026.0588824736212) translate(39.85685185185186 14.222222222222223)"/><use xlink:href="#R" transform="matrix(1,0,0,1,1251.5428953511032,2026.0588824736212) translate(0.005000000000002558 35.55555555555556)"/><use xlink:href="#S" transform="matrix(1,0,0,1,1251.5428953511032,2026.0588824736212) translate(21.634629629629632 35.55555555555556)"/></g><path d="M1320.94 1574.65h222.2" stroke="#3a414a" fill="none"/><path d="M1320.95 1575.15h-.5v-1h.5z" stroke="#3a414a" stroke-width=".05" fill="#3a414a"/><path d="M1557.9 1574.65l-14.26 4.63V1570z" stroke="#3a414a" fill="#3a414a"/><g><use xlink:href="#ah" transform="matrix(1,0,0,1,1367.0123456790122,1549.3157437865523) translate(0 14.222222222222223)"/><use xlink:href="#ai" transform="matrix(1,0,0,1,1367.0123456790122,1549.3157437865523) translate(48.2962962962963 14.222222222222223)"/></g><path d="M1560 1545.98a6 6 0 0 1 6-6h108a6 6 0 0 1 6 6v108a6 6 0 0 1-6 6h-108a6 6 0 0 1-6-6z" stroke="#3a414a" fill="#fff"/><g><use xlink:href="#y" transform="matrix(1,0,0,1,1572,1551.9803765183551) translate(11.672839506172842 26.77777777777778)"/><use xlink:href="#aj" transform="matrix(1,0,0,1,1572,1551.9803765183551) translate(6.672839506172835 53.44444444444445)"/><use xlink:href="#ak" transform="matrix(1,0,0,1,1572,1551.9803765183551) translate(24.54320987654321 80.11111111111111)"/></g><path d="M1559.05 1625.3h-119a.02.02 0 0 0-.03.02.02.02 0 0 1-.02.02h-103.13" stroke="#3a414a" fill="none"/><path d="M1559.55 1625.8h-.5v-1h.5z" stroke="#3a414a" stroke-width=".05" fill="#3a414a"/><path d="M1322.1 1625.34l14.27-4.64v9.27z" stroke="#3a414a" fill="#3a414a"/><g><use xlink:href="#o" transform="matrix(1,0,0,1,1418.8144984403555,1629.3367277135542) translate(0 14.222222222222223)"/></g><path d="M978.6 1559h-1v-36h1zm0-57.34h-1v-44.78h1z" stroke="#3a414a" stroke-width=".05" fill="#3a414a"/><path d="M978.6 1559.5h-1v-.5h1z" fill="#3a414a"/><path d="M978.63 1559.53h-1.05v-.56h1.05zm-1-.5v.45h.95v-.46z" stroke="#3a414a" stroke-width=".05" fill="#3a414a"/><path d="M982.74 1456.38h-9.27l4.64-14.26z" fill="#3a414a"/><path d="M983.43 1456.88h-10.65l5.33-16.38zm-9.27-1h7.9l-3.95-12.14z" stroke="#3a414a" stroke-width=".05" fill="#3a414a"/><g><use xlink:href="#al" transform="matrix(1,0,0,1,960.377641785489,1501.6605605937348) translate(0 14.222222222222223)"/></g><path d="M1008.1 1410c0 16.57-13.43 30-30 30-16.56 0-30-13.43-30-30s13.44-30 30-30c16.57 0 30 13.43 30 30z" stroke="#3a414a" fill="#fff"/><path d="M1000.8 1410c0 11.05-10.16 20-22.7 20-12.52 0-22.68-8.95-22.68-20s10.16-20 22.7-20c12.52 0 22.67 8.95 22.67 20z" stroke="#3a414a" fill="#3a414a"/><path d="M855.3 2059.04h3.27v1h-3.28l-83-.03v-1zm98.82 0v1h-16.7v-1z" stroke="#3a414a" stroke-width=".05" fill="#3a414a"/><path d="M954.62 2060.04h-.5v-1h.5z" fill="#3a414a"/><path d="M954.64 2060.07h-.56v-1.05h.56zm-.5-1v.95h.45v-.95z" stroke="#3a414a" stroke-width=".05" fill="#3a414a"/><path d="M771.8 2064.15l-14.26-4.64 14.27-4.62z" fill="#3a414a"/><path d="M772.3 2064.84l-16.38-5.33 16.4-5.3zm-13.14-5.33l12.15 3.96v-7.9z" stroke="#3a414a" stroke-width=".05" fill="#3a414a"/><g><use xlink:href="#Y" transform="matrix(1,0,0,1,858.5679012345679,2027.5425082198553) translate(9.41240740740741 14.222222222222223)"/><use xlink:href="#am" transform="matrix(1,0,0,1,858.5679012345679,2027.5425082198553) translate(0.005000000000002558 35.55555555555556)"/><use xlink:href="#an" transform="matrix(1,0,0,1,858.5679012345679,2027.5425082198553) translate(63.116111111111124 35.55555555555556)"/><use xlink:href="#ao" transform="matrix(1,0,0,1,858.5679012345679,2027.5425082198553) translate(0.9926543209876542 56.88888888888889)"/></g><defs><path fill="#3a414a" d="M33 0v-248h34V0H33" id="ap"/><path fill="#3a414a" d="M85-194c31 0 48 13 60 33l-1-100h32l1 261h-30c-2-10 0-23-3-31C134-8 116 4 85 4 32 4 16-35 15-94c0-66 23-100 70-100zm9 24c-40 0-46 34-46 75 0 40 6 74 45 74 42 0 51-32 51-76 0-42-9-74-50-73" id="aq"/><path fill="#3a414a" d="M24 0v-261h32V0H24" id="ar"/><path fill="#3a414a" d="M100-194c63 0 86 42 84 106H49c0 40 14 67 53 68 26 1 43-12 49-29l28 8c-11 28-37 45-77 45C44 4 14-33 15-96c1-61 26-98 85-98zm52 81c6-60-76-77-97-28-3 7-6 17-6 28h103" id="as"/><g id="a"><use transform="matrix(0.06172839506172839,0,0,0.06172839506172839,0,0)" xlink:href="#ap"/><use transform="matrix(0.06172839506172839,0,0,0.06172839506172839,6.172839506172839,0)" xlink:href="#aq"/><use transform="matrix(0.06172839506172839,0,0,0.06172839506172839,18.51851851851852,0)" xlink:href="#ar"/><use transform="matrix(0.06172839506172839,0,0,0.06172839506172839,23.395061728395063,0)" xlink:href="#as"/></g><path fill="#3a414a" d="M0 4l72-265h28L28 4H0" id="at"/><use transform="matrix(0.06172839506172839,0,0,0.06172839506172839,0,0)" xlink:href="#at" id="b"/><path fill="#3a414a" d="M210-169c-67 3-38 105-44 169h-31v-121c0-29-5-50-35-48C34-165 62-65 56 0H25l-1-190h30c1 10-1 24 2 32 10-44 99-50 107 0 11-21 27-35 58-36 85-2 47 119 55 194h-31v-121c0-29-5-49-35-48" id="au"/><path fill="#3a414a" d="M141-36C126-15 110 5 73 4 37 3 15-17 15-53c-1-64 63-63 125-63 3-35-9-54-41-54-24 1-41 7-42 31l-33-3c5-37 33-52 76-52 45 0 72 20 72 64v82c-1 20 7 32 28 27v20c-31 9-61-2-59-35zM48-53c0 20 12 33 32 33 41-3 63-29 60-74-43 2-92-5-92 41" id="av"/><path fill="#3a414a" d="M24-231v-30h32v30H24zM24 0v-190h32V0H24" id="aw"/><path fill="#3a414a" d="M117-194c89-4 53 116 60 194h-32v-121c0-31-8-49-39-48C34-167 62-67 57 0H25l-1-190h30c1 10-1 24 2 32 11-22 29-35 61-36" id="ax"/><g id="c"><use transform="matrix(0.06172839506172839,0,0,0.06172839506172839,0,0)" xlink:href="#au"/><use transform="matrix(0.06172839506172839,0,0,0.06172839506172839,18.456790123456788,0)" xlink:href="#av"/><use transform="matrix(0.06172839506172839,0,0,0.06172839506172839,30.80246913580247,0)" xlink:href="#aw"/><use transform="matrix(0.06172839506172839,0,0,0.06172839506172839,35.67901234567901,0)" xlink:href="#ax"/></g><path fill="#3a414a" d="M84 4C-5 8 30-112 23-190h32v120c0 31 7 50 39 49 72-2 45-101 50-169h31l1 190h-30c-1-10 1-25-2-33-11 22-28 36-60 37" id="ay"/><g id="d"><use transform="matrix(0.06172839506172839,0,0,0.06172839506172839,0,0)" xlink:href="#au"/><use transform="matrix(0.06172839506172839,0,0,0.06172839506172839,18.456790123456788,0)" xlink:href="#as"/><use transform="matrix(0.06172839506172839,0,0,0.06172839506172839,30.80246913580247,0)" xlink:href="#ax"/><use transform="matrix(0.06172839506172839,0,0,0.06172839506172839,43.148148148148145,0)" xlink:href="#ay"/></g><g id="e"><use transform="matrix(0.06172839506172839,0,0,0.06172839506172839,0,0)" xlink:href="#ap"/><use transform="matrix(0.06172839506172839,0,0,0.06172839506172839,6.172839506172839,0)" xlink:href="#aq"/><use transform="matrix(0.06172839506172839,0,0,0.06172839506172839,18.51851851851852,0)" xlink:href="#ar"/><use transform="matrix(0.06172839506172839,0,0,0.06172839506172839,23.395061728395063,0)" xlink:href="#as"/></g><use transform="matrix(0.06172839506172839,0,0,0.06172839506172839,0,0)" xlink:href="#at" id="f"/><path fill="#3a414a" d="M140-251c81 0 123 46 123 126C263-46 219 4 140 4 59 4 17-45 17-125s42-126 123-126zm0 227c63 0 89-41 89-101s-29-99-89-99c-61 0-89 39-89 99S79-25 140-24" id="az"/><path fill="#3a414a" d="M114-163C36-179 61-72 57 0H25l-1-190h30c1 12-1 29 2 39 6-27 23-49 58-41v29" id="aA"/><path fill="#3a414a" d="M177-190C167-65 218 103 67 71c-23-6-38-20-44-43l32-5c15 47 100 32 89-28v-30C133-14 115 1 83 1 29 1 15-40 15-95c0-56 16-97 71-98 29-1 48 16 59 35 1-10 0-23 2-32h30zM94-22c36 0 50-32 50-73 0-42-14-75-50-75-39 0-46 34-46 75s6 73 46 73" id="aB"/><path fill="#3a414a" d="M9 0v-24l116-142H16v-24h144v24L44-24h123V0H9" id="aC"/><g id="g"><use transform="matrix(0.06172839506172839,0,0,0.06172839506172839,0,0)" xlink:href="#az"/><use transform="matrix(0.06172839506172839,0,0,0.06172839506172839,17.28395061728395,0)" xlink:href="#aA"/><use transform="matrix(0.06172839506172839,0,0,0.06172839506172839,24.629629629629626,0)" xlink:href="#aB"/><use transform="matrix(0.06172839506172839,0,0,0.06172839506172839,36.9753086419753,0)" xlink:href="#av"/><use transform="matrix(0.06172839506172839,0,0,0.06172839506172839,49.32098765432098,0)" xlink:href="#ax"/><use transform="matrix(0.06172839506172839,0,0,0.06172839506172839,61.66666666666666,0)" xlink:href="#aw"/><use transform="matrix(0.06172839506172839,0,0,0.06172839506172839,66.5432098765432,0)" xlink:href="#aC"/><use transform="matrix(0.06172839506172839,0,0,0.06172839506172839,77.65432098765432,0)" xlink:href="#as"/><use transform="matrix(0.06172839506172839,0,0,0.06172839506172839,90,0)" xlink:href="#aA"/></g><path fill="#3a414a" d="M240 0l2-218c-23 76-54 145-80 218h-23L58-218 59 0H30v-248h44l77 211c21-75 51-140 76-211h43V0h-30" id="aD"/><g id="h"><use transform="matrix(0.06172839506172839,0,0,0.06172839506172839,0,0)" xlink:href="#aD"/><use transform="matrix(0.06172839506172839,0,0,0.06172839506172839,18.456790123456788,0)" xlink:href="#as"/><use transform="matrix(0.06172839506172839,0,0,0.06172839506172839,30.80246913580247,0)" xlink:href="#ax"/><use transform="matrix(0.06172839506172839,0,0,0.06172839506172839,43.148148148148145,0)" xlink:href="#ay"/></g><use transform="matrix(0.06172839506172839,0,0,0.06172839506172839,0,0)" xlink:href="#at" id="i"/><path fill="#3a414a" d="M185-189c-5-48-123-54-124 2 14 75 158 14 163 119 3 78-121 87-175 55-17-10-28-26-33-46l33-7c5 56 141 63 141-1 0-78-155-14-162-118-5-82 145-84 179-34 5 7 8 16 11 25" id="aE"/><path fill="#3a414a" d="M59-47c-2 24 18 29 38 22v24C64 9 27 4 27-40v-127H5v-23h24l9-43h21v43h35v23H59v120" id="aF"/><path fill="#3a414a" d="M135-143c-3-34-86-38-87 0 15 53 115 12 119 90S17 21 10-45l28-5c4 36 97 45 98 0-10-56-113-15-118-90-4-57 82-63 122-42 12 7 21 19 24 35" id="aG"/><g id="j"><use transform="matrix(0.06172839506172839,0,0,0.06172839506172839,0,0)" xlink:href="#aE"/><use transform="matrix(0.06172839506172839,0,0,0.06172839506172839,14.814814814814813,0)" xlink:href="#aF"/><use transform="matrix(0.06172839506172839,0,0,0.06172839506172839,20.98765432098765,0)" xlink:href="#av"/><use transform="matrix(0.06172839506172839,0,0,0.06172839506172839,33.33333333333333,0)" xlink:href="#aF"/><use transform="matrix(0.06172839506172839,0,0,0.06172839506172839,39.50617283950617,0)" xlink:href="#aG"/></g><g id="k"><use transform="matrix(0.06172839506172839,0,0,0.06172839506172839,0,0)" xlink:href="#au"/><use transform="matrix(0.06172839506172839,0,0,0.06172839506172839,18.456790123456788,0)" xlink:href="#as"/><use transform="matrix(0.06172839506172839,0,0,0.06172839506172839,30.80246913580247,0)" xlink:href="#ax"/><use transform="matrix(0.06172839506172839,0,0,0.06172839506172839,43.148148148148145,0)" xlink:href="#ay"/></g><path fill="#3a414a" d="M127-220V0H93v-220H8v-28h204v28h-85" id="aH"/><g id="l"><use transform="matrix(0.06172839506172839,0,0,0.06172839506172839,0,0)" xlink:href="#aH"/><use transform="matrix(0.06172839506172839,0,0,0.06172839506172839,11.049382716049381,0)" xlink:href="#as"/><use transform="matrix(0.06172839506172839,0,0,0.06172839506172839,23.39506172839506,0)" xlink:href="#av"/><use transform="matrix(0.06172839506172839,0,0,0.06172839506172839,35.74074074074074,0)" xlink:href="#au"/></g><path fill="#3a414a" d="M96-169c-40 0-48 33-48 73s9 75 48 75c24 0 41-14 43-38l32 2c-6 37-31 61-74 61-59 0-76-41-82-99-10-93 101-131 147-64 4 7 5 14 7 22l-32 3c-4-21-16-35-41-35" id="aI"/><path fill="#3a414a" d="M115-194c55 1 70 41 70 98S169 2 115 4C84 4 66-9 55-30l1 105H24l-1-265h31l2 30c10-21 28-34 59-34zm-8 174c40 0 45-34 45-75s-6-73-45-74c-42 0-51 32-51 76 0 43 10 73 51 73" id="aJ"/><g id="m"><use transform="matrix(0.06172839506172839,0,0,0.06172839506172839,0,0)" xlink:href="#aI"/><use transform="matrix(0.06172839506172839,0,0,0.06172839506172839,11.11111111111111,0)" xlink:href="#av"/><use transform="matrix(0.06172839506172839,0,0,0.06172839506172839,23.45679012345679,0)" xlink:href="#aJ"/><use transform="matrix(0.06172839506172839,0,0,0.06172839506172839,35.80246913580247,0)" xlink:href="#aF"/><use transform="matrix(0.06172839506172839,0,0,0.06172839506172839,41.97530864197531,0)" xlink:href="#av"/><use transform="matrix(0.06172839506172839,0,0,0.06172839506172839,54.32098765432099,0)" xlink:href="#aw"/><use transform="matrix(0.06172839506172839,0,0,0.06172839506172839,59.19753086419753,0)" xlink:href="#ax"/></g><g id="n"><use transform="matrix(0.06172839506172839,0,0,0.06172839506172839,0,0)" xlink:href="#au"/><use transform="matrix(0.06172839506172839,0,0,0.06172839506172839,18.456790123456788,0)" xlink:href="#as"/><use transform="matrix(0.06172839506172839,0,0,0.06172839506172839,30.80246913580247,0)" xlink:href="#ax"/><use transform="matrix(0.06172839506172839,0,0,0.06172839506172839,43.148148148148145,0)" xlink:href="#ay"/></g><path fill="#333" d="M182-130c37 4 62 22 62 59C244 23 116-4 24 0v-248c84 5 203-23 205 63 0 31-19 50-47 55zM76-148c40-3 101 13 101-30 0-44-60-28-101-31v61zm0 110c48-3 116 14 116-37 0-48-69-32-116-35v72" id="aK"/><path fill="#333" d="M133-34C117-15 103 5 69 4 32 3 11-16 11-54c-1-60 55-63 116-61 1-26-3-47-28-47-18 1-26 9-28 27l-52-2c7-38 36-58 82-57s74 22 75 68l1 82c-1 14 12 18 25 15v27c-30 8-71 5-69-32zm-48 3c29 0 43-24 42-57-32 0-66-3-65 30 0 17 8 27 23 27" id="aL"/><path fill="#333" d="M190-63c-7 42-38 67-86 67-59 0-84-38-90-98-12-110 154-137 174-36l-49 2c-2-19-15-32-35-32-30 0-35 28-38 64-6 74 65 87 74 30" id="aM"/><path fill="#333" d="M147 0L96-86 75-71V0H25v-261h50v150l67-79h53l-66 74L201 0h-54" id="aN"/><g id="o"><use transform="matrix(0.04938271604938272,0,0,0.04938271604938272,0,0)" xlink:href="#aK"/><use transform="matrix(0.04938271604938272,0,0,0.04938271604938272,12.790123456790125,0)" xlink:href="#aL"/><use transform="matrix(0.04938271604938272,0,0,0.04938271604938272,22.66666666666667,0)" xlink:href="#aM"/><use transform="matrix(0.04938271604938272,0,0,0.04938271604938272,32.543209876543216,0)" xlink:href="#aN"/></g><path fill="#333" d="M169-182c-1-43-94-46-97-3 18 66 151 10 154 114 3 95-165 93-204 36-6-8-10-19-12-30l50-8c3 46 112 56 116 5-17-69-150-10-154-114-4-87 153-88 188-35 5 8 8 18 10 28" id="aO"/><path fill="#333" d="M185-48c-13 30-37 53-82 52C43 2 14-33 14-96s30-98 90-98c62 0 83 45 84 108H66c0 31 8 55 39 56 18 0 30-7 34-22zm-45-69c5-46-57-63-70-21-2 6-4 13-4 21h74" id="aP"/><path fill="#333" d="M25 0v-261h50V0H25" id="aQ"/><path fill="#333" d="M115-3C79 11 28 4 28-45v-112H4v-33h27l15-45h31v45h36v33H77v99c-1 23 16 31 38 25v30" id="aR"/><g id="p"><use transform="matrix(0.04938271604938272,0,0,0.04938271604938272,0,0)" xlink:href="#aO"/><use transform="matrix(0.04938271604938272,0,0,0.04938271604938272,11.851851851851853,0)" xlink:href="#aP"/><use transform="matrix(0.04938271604938272,0,0,0.04938271604938272,21.7283950617284,0)" xlink:href="#aQ"/><use transform="matrix(0.04938271604938272,0,0,0.04938271604938272,26.666666666666668,0)" xlink:href="#aP"/><use transform="matrix(0.04938271604938272,0,0,0.04938271604938272,36.543209876543216,0)" xlink:href="#aM"/><use transform="matrix(0.04938271604938272,0,0,0.04938271604938272,46.41975308641976,0)" xlink:href="#aR"/></g><path fill="#333" d="M135-150c-39-12-60 13-60 57V0H25l-1-190h47c2 13-1 29 3 40 6-28 27-53 61-41v41" id="aS"/><path fill="#333" d="M195-6C206 82 75 100 31 46c-4-6-6-13-8-21l49-6c3 16 16 24 34 25 40 0 42-37 40-79-11 22-30 35-61 35-53 0-70-43-70-97 0-56 18-96 73-97 30 0 46 14 59 34l2-30h47zm-90-29c32 0 41-27 41-63 0-35-9-62-40-62-32 0-39 29-40 63 0 36 9 62 39 62" id="aT"/><path fill="#333" d="M25-224v-37h50v37H25zM25 0v-190h50V0H25" id="aU"/><path fill="#333" d="M137-138c1-29-70-34-71-4 15 46 118 7 119 86 1 83-164 76-172 9l43-7c4 19 20 25 44 25 33 8 57-30 24-41C81-84 22-81 20-136c-2-80 154-74 161-7" id="aV"/><g id="q"><use transform="matrix(0.04938271604938272,0,0,0.04938271604938272,0,0)" xlink:href="#aS"/><use transform="matrix(0.04938271604938272,0,0,0.04938271604938272,6.913580246913581,0)" xlink:href="#aP"/><use transform="matrix(0.04938271604938272,0,0,0.04938271604938272,16.790123456790127,0)" xlink:href="#aT"/><use transform="matrix(0.04938271604938272,0,0,0.04938271604938272,27.604938271604947,0)" xlink:href="#aU"/><use transform="matrix(0.04938271604938272,0,0,0.04938271604938272,32.543209876543216,0)" xlink:href="#aV"/><use transform="matrix(0.04938271604938272,0,0,0.04938271604938272,42.41975308641976,0)" xlink:href="#aR"/><use transform="matrix(0.04938271604938272,0,0,0.04938271604938272,48.296296296296305,0)" xlink:href="#aP"/><use transform="matrix(0.04938271604938272,0,0,0.04938271604938272,58.17283950617284,0)" xlink:href="#aS"/></g><path fill="#333" d="M220-157c-53 9-28 100-34 157h-49v-107c1-27-5-49-29-50C55-147 81-57 75 0H25l-1-190h47c2 12-1 28 3 38 10-53 101-56 108 0 13-22 24-43 59-42 82 1 51 116 57 194h-49v-107c-1-25-5-48-29-50" id="aW"/><g id="r"><use transform="matrix(0.04938271604938272,0,0,0.04938271604938272,0,0)" xlink:href="#aR"/><use transform="matrix(0.04938271604938272,0,0,0.04938271604938272,5.8765432098765435,0)" xlink:href="#aP"/><use transform="matrix(0.04938271604938272,0,0,0.04938271604938272,15.753086419753087,0)" xlink:href="#aL"/><use transform="matrix(0.04938271604938272,0,0,0.04938271604938272,25.629629629629633,0)" xlink:href="#aW"/></g><path fill="#3a414a" d="M30-248c118-7 216 8 213 122C240-48 200 0 122 0H30v-248zM63-27c89 8 146-16 146-99s-60-101-146-95v194" id="aX"/><path fill="#3a414a" d="M179-190L93 31C79 59 56 82 12 73V49c39 6 53-20 64-50L1-190h34L92-34l54-156h33" id="aY"/><g id="s"><use transform="matrix(0.06172839506172839,0,0,0.06172839506172839,0,0)" xlink:href="#aX"/><use transform="matrix(0.06172839506172839,0,0,0.06172839506172839,15.987654320987653,0)" xlink:href="#aw"/><use transform="matrix(0.06172839506172839,0,0,0.06172839506172839,20.864197530864196,0)" xlink:href="#aG"/><use transform="matrix(0.06172839506172839,0,0,0.06172839506172839,31.975308641975307,0)" xlink:href="#aJ"/><use transform="matrix(0.06172839506172839,0,0,0.06172839506172839,44.32098765432099,0)" xlink:href="#ar"/><use transform="matrix(0.06172839506172839,0,0,0.06172839506172839,49.19753086419753,0)" xlink:href="#av"/><use transform="matrix(0.06172839506172839,0,0,0.06172839506172839,61.54320987654321,0)" xlink:href="#aY"/></g><g id="t"><use transform="matrix(0.06172839506172839,0,0,0.06172839506172839,0,0)" xlink:href="#aF"/><use transform="matrix(0.06172839506172839,0,0,0.06172839506172839,6.172839506172839,0)" xlink:href="#as"/><use transform="matrix(0.06172839506172839,0,0,0.06172839506172839,18.51851851851852,0)" xlink:href="#av"/><use transform="matrix(0.06172839506172839,0,0,0.06172839506172839,30.864197530864196,0)" xlink:href="#au"/></g><path fill="#3a414a" d="M100-194c62-1 85 37 85 99 1 63-27 99-86 99S16-35 15-95c0-66 28-99 85-99zM99-20c44 1 53-31 53-75 0-43-8-75-51-75s-53 32-53 75 10 74 51 75" id="aZ"/><g id="u"><use transform="matrix(0.06172839506172839,0,0,0.06172839506172839,0,0)" xlink:href="#aA"/><use transform="matrix(0.06172839506172839,0,0,0.06172839506172839,7.345679012345679,0)" xlink:href="#as"/><use transform="matrix(0.06172839506172839,0,0,0.06172839506172839,19.691358024691358,0)" xlink:href="#aB"/><use transform="matrix(0.06172839506172839,0,0,0.06172839506172839,32.03703703703704,0)" xlink:href="#aw"/><use transform="matrix(0.06172839506172839,0,0,0.06172839506172839,36.91358024691358,0)" xlink:href="#aG"/><use transform="matrix(0.06172839506172839,0,0,0.06172839506172839,48.0246913580247,0)" xlink:href="#aF"/><use transform="matrix(0.06172839506172839,0,0,0.06172839506172839,54.19753086419754,0)" xlink:href="#aA"/><use transform="matrix(0.06172839506172839,0,0,0.06172839506172839,61.543209876543216,0)" xlink:href="#av"/><use transform="matrix(0.06172839506172839,0,0,0.06172839506172839,73.8888888888889,0)" xlink:href="#aF"/><use transform="matrix(0.06172839506172839,0,0,0.06172839506172839,80.06172839506173,0)" xlink:href="#aw"/><use transform="matrix(0.06172839506172839,0,0,0.06172839506172839,84.93827160493828,0)" xlink:href="#aZ"/><use transform="matrix(0.06172839506172839,0,0,0.06172839506172839,97.28395061728396,0)" xlink:href="#ax"/></g><g id="v"><use transform="matrix(0.04938271604938272,0,0,0.04938271604938272,0,0)" xlink:href="#aO"/><use transform="matrix(0.04938271604938272,0,0,0.04938271604938272,11.851851851851853,0)" xlink:href="#aP"/><use transform="matrix(0.04938271604938272,0,0,0.04938271604938272,21.7283950617284,0)" xlink:href="#aQ"/><use transform="matrix(0.04938271604938272,0,0,0.04938271604938272,26.666666666666668,0)" xlink:href="#aP"/><use transform="matrix(0.04938271604938272,0,0,0.04938271604938272,36.543209876543216,0)" xlink:href="#aM"/><use transform="matrix(0.04938271604938272,0,0,0.04938271604938272,46.41975308641976,0)" xlink:href="#aR"/></g><g id="w"><use transform="matrix(0.04938271604938272,0,0,0.04938271604938272,0,0)" xlink:href="#aS"/><use transform="matrix(0.04938271604938272,0,0,0.04938271604938272,6.913580246913581,0)" xlink:href="#aP"/><use transform="matrix(0.04938271604938272,0,0,0.04938271604938272,16.790123456790127,0)" xlink:href="#aT"/><use transform="matrix(0.04938271604938272,0,0,0.04938271604938272,27.604938271604947,0)" xlink:href="#aU"/><use transform="matrix(0.04938271604938272,0,0,0.04938271604938272,32.543209876543216,0)" xlink:href="#aV"/><use transform="matrix(0.04938271604938272,0,0,0.04938271604938272,42.41975308641976,0)" xlink:href="#aR"/><use transform="matrix(0.04938271604938272,0,0,0.04938271604938272,48.296296296296305,0)" xlink:href="#aP"/><use transform="matrix(0.04938271604938272,0,0,0.04938271604938272,58.17283950617284,0)" xlink:href="#aS"/></g><path fill="#333" d="M135-194c53 0 70 44 70 98 0 56-19 98-73 100-31 1-45-17-59-34 3 33 2 69 2 105H25l-1-265h48c2 10 0 23 3 31 11-24 29-35 60-35zM114-30c33 0 39-31 40-66 0-38-9-64-40-64-56 0-55 130 0 130" id="ba"/><path fill="#333" d="M123 10C108 53 80 86 19 72V37c35 8 53-11 59-39L3-190h52l48 148c12-52 28-100 44-148h51" id="bb"/><g id="x"><use transform="matrix(0.04938271604938272,0,0,0.04938271604938272,0,0)" xlink:href="#ba"/><use transform="matrix(0.04938271604938272,0,0,0.04938271604938272,10.814814814814815,0)" xlink:href="#aQ"/><use transform="matrix(0.04938271604938272,0,0,0.04938271604938272,15.753086419753087,0)" xlink:href="#aL"/><use transform="matrix(0.04938271604938272,0,0,0.04938271604938272,25.629629629629633,0)" xlink:href="#bb"/><use transform="matrix(0.04938271604938272,0,0,0.04938271604938272,35.50617283950618,0)" xlink:href="#aP"/><use transform="matrix(0.04938271604938272,0,0,0.04938271604938272,45.38271604938272,0)" xlink:href="#aS"/><use transform="matrix(0.04938271604938272,0,0,0.04938271604938272,52.2962962962963,0)" xlink:href="#aV"/></g><g id="y"><use transform="matrix(0.06172839506172839,0,0,0.06172839506172839,0,0)" xlink:href="#aX"/><use transform="matrix(0.06172839506172839,0,0,0.06172839506172839,15.987654320987653,0)" xlink:href="#aw"/><use transform="matrix(0.06172839506172839,0,0,0.06172839506172839,20.864197530864196,0)" xlink:href="#aG"/><use transform="matrix(0.06172839506172839,0,0,0.06172839506172839,31.975308641975307,0)" xlink:href="#aJ"/><use transform="matrix(0.06172839506172839,0,0,0.06172839506172839,44.32098765432099,0)" xlink:href="#ar"/><use transform="matrix(0.06172839506172839,0,0,0.06172839506172839,49.19753086419753,0)" xlink:href="#av"/><use transform="matrix(0.06172839506172839,0,0,0.06172839506172839,61.54320987654321,0)" xlink:href="#aY"/></g><g id="z"><use transform="matrix(0.06172839506172839,0,0,0.06172839506172839,0,0)" xlink:href="#aJ"/><use transform="matrix(0.06172839506172839,0,0,0.06172839506172839,12.345679012345679,0)" xlink:href="#ar"/><use transform="matrix(0.06172839506172839,0,0,0.06172839506172839,17.22222222222222,0)" xlink:href="#av"/><use transform="matrix(0.06172839506172839,0,0,0.06172839506172839,29.5679012345679,0)" xlink:href="#aY"/><use transform="matrix(0.06172839506172839,0,0,0.06172839506172839,40.67901234567901,0)" xlink:href="#as"/><use transform="matrix(0.06172839506172839,0,0,0.06172839506172839,53.02469135802469,0)" xlink:href="#aA"/></g><path fill="#3a414a" d="M33 0v-38h34V0H33" id="bc"/><g id="A"><use transform="matrix(0.06172839506172839,0,0,0.06172839506172839,0,0)" xlink:href="#aA"/><use transform="matrix(0.06172839506172839,0,0,0.06172839506172839,7.345679012345679,0)" xlink:href="#as"/><use transform="matrix(0.06172839506172839,0,0,0.06172839506172839,19.691358024691358,0)" xlink:href="#aB"/><use transform="matrix(0.06172839506172839,0,0,0.06172839506172839,32.03703703703704,0)" xlink:href="#bc"/></g><path fill="#3a414a" d="M101-234c-31-9-42 10-38 44h38v23H63V0H32v-167H5v-23h27c-7-52 17-82 69-68v24" id="bd"/><g id="B"><use transform="matrix(0.06172839506172839,0,0,0.06172839506172839,0,0)" xlink:href="#bd"/><use transform="matrix(0.06172839506172839,0,0,0.06172839506172839,6.172839506172839,0)" xlink:href="#aZ"/><use transform="matrix(0.06172839506172839,0,0,0.06172839506172839,18.51851851851852,0)" xlink:href="#aA"/><use transform="matrix(0.06172839506172839,0,0,0.06172839506172839,25.864197530864196,0)" xlink:href="#au"/></g><g id="C"><use transform="matrix(0.04938271604938272,0,0,0.04938271604938272,0,0)" xlink:href="#aO"/><use transform="matrix(0.04938271604938272,0,0,0.04938271604938272,11.851851851851853,0)" xlink:href="#aP"/><use transform="matrix(0.04938271604938272,0,0,0.04938271604938272,21.7283950617284,0)" xlink:href="#aQ"/><use transform="matrix(0.04938271604938272,0,0,0.04938271604938272,26.666666666666668,0)" xlink:href="#aP"/><use transform="matrix(0.04938271604938272,0,0,0.04938271604938272,36.543209876543216,0)" xlink:href="#aM"/><use transform="matrix(0.04938271604938272,0,0,0.04938271604938272,46.41975308641976,0)" xlink:href="#aR"/></g><g id="D"><use transform="matrix(0.04938271604938272,0,0,0.04938271604938272,0,0)" xlink:href="#aM"/><use transform="matrix(0.04938271604938272,0,0,0.04938271604938272,9.876543209876544,0)" xlink:href="#aS"/><use transform="matrix(0.04938271604938272,0,0,0.04938271604938272,16.790123456790127,0)" xlink:href="#aP"/><use transform="matrix(0.04938271604938272,0,0,0.04938271604938272,26.666666666666668,0)" xlink:href="#aL"/><use transform="matrix(0.04938271604938272,0,0,0.04938271604938272,36.543209876543216,0)" xlink:href="#aR"/><use transform="matrix(0.04938271604938272,0,0,0.04938271604938272,42.41975308641976,0)" xlink:href="#aP"/></g><path fill="#333" d="M110-194c64 0 96 36 96 99 0 64-35 99-97 99-61 0-95-36-95-99 0-62 34-99 96-99zm-1 164c35 0 45-28 45-65 0-40-10-65-43-65-34 0-45 26-45 65 0 36 10 65 43 65" id="be"/><path fill="#333" d="M85 4C-2 5 27-109 22-190h50c7 57-23 150 33 157 60-5 35-97 40-157h50l1 190h-47c-2-12 1-28-3-38-12 25-28 42-61 42" id="bf"/><path fill="#333" d="M135-194c87-1 58 113 63 194h-50c-7-57 23-157-34-157-59 0-34 97-39 157H25l-1-190h47c2 12-1 28 3 38 12-26 28-41 61-42" id="bg"/><g id="E"><use transform="matrix(0.04938271604938272,0,0,0.04938271604938272,0,0)" xlink:href="#aR"/><use transform="matrix(0.04938271604938272,0,0,0.04938271604938272,5.8765432098765435,0)" xlink:href="#be"/><use transform="matrix(0.04938271604938272,0,0,0.04938271604938272,16.691358024691358,0)" xlink:href="#bf"/><use transform="matrix(0.04938271604938272,0,0,0.04938271604938272,27.50617283950617,0)" xlink:href="#aS"/><use transform="matrix(0.04938271604938272,0,0,0.04938271604938272,34.41975308641975,0)" xlink:href="#bg"/><use transform="matrix(0.04938271604938272,0,0,0.04938271604938272,45.23456790123457,0)" xlink:href="#aL"/><use transform="matrix(0.04938271604938272,0,0,0.04938271604938272,55.111111111111114,0)" xlink:href="#aW"/><use transform="matrix(0.04938271604938272,0,0,0.04938271604938272,70.91358024691358,0)" xlink:href="#aP"/><use transform="matrix(0.04938271604938272,0,0,0.04938271604938272,80.79012345679013,0)" xlink:href="#bg"/><use transform="matrix(0.04938271604938272,0,0,0.04938271604938272,91.60493827160494,0)" xlink:href="#aR"/></g><g id="F"><use transform="matrix(0.06172839506172839,0,0,0.06172839506172839,0,0)" xlink:href="#aX"/><use transform="matrix(0.06172839506172839,0,0,0.06172839506172839,15.987654320987653,0)" xlink:href="#aw"/><use transform="matrix(0.06172839506172839,0,0,0.06172839506172839,20.864197530864196,0)" xlink:href="#aG"/><use transform="matrix(0.06172839506172839,0,0,0.06172839506172839,31.975308641975307,0)" xlink:href="#aJ"/><use transform="matrix(0.06172839506172839,0,0,0.06172839506172839,44.32098765432099,0)" xlink:href="#ar"/><use transform="matrix(0.06172839506172839,0,0,0.06172839506172839,49.19753086419753,0)" xlink:href="#aY"/></g><g id="G"><use transform="matrix(0.06172839506172839,0,0,0.06172839506172839,0,0)" xlink:href="#aI"/><use transform="matrix(0.06172839506172839,0,0,0.06172839506172839,11.11111111111111,0)" xlink:href="#aA"/><use transform="matrix(0.06172839506172839,0,0,0.06172839506172839,18.45679012345679,0)" xlink:href="#as"/><use transform="matrix(0.06172839506172839,0,0,0.06172839506172839,30.80246913580247,0)" xlink:href="#av"/><use transform="matrix(0.06172839506172839,0,0,0.06172839506172839,43.148148148148145,0)" xlink:href="#aF"/><use transform="matrix(0.06172839506172839,0,0,0.06172839506172839,49.32098765432099,0)" xlink:href="#as"/></g><g id="H"><use transform="matrix(0.06172839506172839,0,0,0.06172839506172839,0,0)" xlink:href="#aF"/><use transform="matrix(0.06172839506172839,0,0,0.06172839506172839,6.172839506172839,0)" xlink:href="#aZ"/><use transform="matrix(0.06172839506172839,0,0,0.06172839506172839,18.51851851851852,0)" xlink:href="#ay"/><use transform="matrix(0.06172839506172839,0,0,0.06172839506172839,30.864197530864196,0)" xlink:href="#aA"/><use transform="matrix(0.06172839506172839,0,0,0.06172839506172839,38.20987654320987,0)" xlink:href="#ax"/><use transform="matrix(0.06172839506172839,0,0,0.06172839506172839,50.55555555555555,0)" xlink:href="#av"/><use transform="matrix(0.06172839506172839,0,0,0.06172839506172839,62.90123456790123,0)" xlink:href="#au"/><use transform="matrix(0.06172839506172839,0,0,0.06172839506172839,81.35802469135801,0)" xlink:href="#as"/><use transform="matrix(0.06172839506172839,0,0,0.06172839506172839,93.7037037037037,0)" xlink:href="#ax"/><use transform="matrix(0.06172839506172839,0,0,0.06172839506172839,106.04938271604938,0)" xlink:href="#aF"/></g><path fill="#333" d="M114-157C55-157 80-60 75 0H25v-261h50l-1 109c12-26 28-41 61-42 86-1 58 113 63 194h-50c-7-57 23-157-34-157" id="bh"/><g id="I"><use transform="matrix(0.04938271604938272,0,0,0.04938271604938272,0,0)" xlink:href="#aM"/><use transform="matrix(0.04938271604938272,0,0,0.04938271604938272,9.876543209876544,0)" xlink:href="#bh"/><use transform="matrix(0.04938271604938272,0,0,0.04938271604938272,20.69135802469136,0)" xlink:href="#aL"/><use transform="matrix(0.04938271604938272,0,0,0.04938271604938272,30.567901234567906,0)" xlink:href="#bg"/><use transform="matrix(0.04938271604938272,0,0,0.04938271604938272,41.38271604938272,0)" xlink:href="#aT"/><use transform="matrix(0.04938271604938272,0,0,0.04938271604938272,52.19753086419754,0)" xlink:href="#aP"/></g><path fill="#333" d="M88-194c31-1 46 15 58 34l-1-101h50l1 261h-48c-2-10 0-23-3-31C134-8 116 4 84 4 32 4 16-41 15-95c0-56 19-97 73-99zm17 164c33 0 40-30 41-66 1-37-9-64-41-64s-38 30-39 65c0 43 13 65 39 65" id="bi"/><g id="J"><use transform="matrix(0.04938271604938272,0,0,0.04938271604938272,0,0)" xlink:href="#bi"/><use transform="matrix(0.04938271604938272,0,0,0.04938271604938272,10.814814814814815,0)" xlink:href="#aL"/><use transform="matrix(0.04938271604938272,0,0,0.04938271604938272,20.69135802469136,0)" xlink:href="#aR"/><use transform="matrix(0.04938271604938272,0,0,0.04938271604938272,26.567901234567902,0)" xlink:href="#aP"/><use transform="matrix(0.04938271604938272,0,0,0.04938271604938272,36.44444444444445,0)" xlink:href="#aV"/></g><g id="K"><use transform="matrix(0.06172839506172839,0,0,0.06172839506172839,0,0)" xlink:href="#aq"/><use transform="matrix(0.06172839506172839,0,0,0.06172839506172839,12.345679012345679,0)" xlink:href="#av"/><use transform="matrix(0.06172839506172839,0,0,0.06172839506172839,24.691358024691358,0)" xlink:href="#aF"/><use transform="matrix(0.06172839506172839,0,0,0.06172839506172839,30.864197530864196,0)" xlink:href="#as"/></g><g id="L"><use transform="matrix(0.06172839506172839,0,0,0.06172839506172839,0,0)" xlink:href="#aG"/><use transform="matrix(0.06172839506172839,0,0,0.06172839506172839,11.11111111111111,0)" xlink:href="#as"/><use transform="matrix(0.06172839506172839,0,0,0.06172839506172839,23.45679012345679,0)" xlink:href="#ar"/><use transform="matrix(0.06172839506172839,0,0,0.06172839506172839,28.333333333333336,0)" xlink:href="#as"/><use transform="matrix(0.06172839506172839,0,0,0.06172839506172839,40.67901234567901,0)" xlink:href="#aI"/><use transform="matrix(0.06172839506172839,0,0,0.06172839506172839,51.79012345679013,0)" xlink:href="#aF"/><use transform="matrix(0.06172839506172839,0,0,0.06172839506172839,57.96296296296297,0)" xlink:href="#aw"/><use transform="matrix(0.06172839506172839,0,0,0.06172839506172839,62.83950617283951,0)" xlink:href="#aZ"/><use transform="matrix(0.06172839506172839,0,0,0.06172839506172839,75.18518518518519,0)" xlink:href="#ax"/></g><g id="M"><use transform="matrix(0.04938271604938272,0,0,0.04938271604938272,0,0)" xlink:href="#aS"/><use transform="matrix(0.04938271604938272,0,0,0.04938271604938272,6.913580246913581,0)" xlink:href="#aP"/><use transform="matrix(0.04938271604938272,0,0,0.04938271604938272,16.790123456790127,0)" xlink:href="#aV"/><use transform="matrix(0.04938271604938272,0,0,0.04938271604938272,26.666666666666668,0)" xlink:href="#bf"/><use transform="matrix(0.04938271604938272,0,0,0.04938271604938272,37.48148148148149,0)" xlink:href="#aQ"/><use transform="matrix(0.04938271604938272,0,0,0.04938271604938272,42.41975308641976,0)" xlink:href="#aR"/><use transform="matrix(0.04938271604938272,0,0,0.04938271604938272,48.296296296296305,0)" xlink:href="#aV"/></g><g id="N"><use transform="matrix(0.06172839506172839,0,0,0.06172839506172839,0,0)" xlink:href="#aA"/><use transform="matrix(0.06172839506172839,0,0,0.06172839506172839,7.345679012345679,0)" xlink:href="#as"/><use transform="matrix(0.06172839506172839,0,0,0.06172839506172839,19.691358024691358,0)" xlink:href="#aG"/><use transform="matrix(0.06172839506172839,0,0,0.06172839506172839,30.80246913580247,0)" xlink:href="#ay"/><use transform="matrix(0.06172839506172839,0,0,0.06172839506172839,43.148148148148145,0)" xlink:href="#ar"/><use transform="matrix(0.06172839506172839,0,0,0.06172839506172839,48.02469135802469,0)" xlink:href="#aF"/><use transform="matrix(0.06172839506172839,0,0,0.06172839506172839,54.19753086419753,0)" xlink:href="#aG"/></g><g id="O"><use transform="matrix(0.06172839506172839,0,0,0.06172839506172839,0,0)" xlink:href="#as"/><use transform="matrix(0.06172839506172839,0,0,0.06172839506172839,12.345679012345679,0)" xlink:href="#aq"/><use transform="matrix(0.06172839506172839,0,0,0.06172839506172839,24.691358024691358,0)" xlink:href="#aw"/><use transform="matrix(0.06172839506172839,0,0,0.06172839506172839,29.5679012345679,0)" xlink:href="#aF"/><use transform="matrix(0.06172839506172839,0,0,0.06172839506172839,35.74074074074074,0)" xlink:href="#aw"/><use transform="matrix(0.06172839506172839,0,0,0.06172839506172839,40.617283950617285,0)" xlink:href="#ax"/><use transform="matrix(0.06172839506172839,0,0,0.06172839506172839,52.96296296296296,0)" xlink:href="#aB"/></g><path fill="#333" d="M199 0l-22-63H83L61 0H9l90-248h61L250 0h-51zm-33-102l-36-108c-10 38-24 72-36 108h72" id="bj"/><g id="P"><use transform="matrix(0.04938271604938272,0,0,0.04938271604938272,0,0)" xlink:href="#bj"/><use transform="matrix(0.04938271604938272,0,0,0.04938271604938272,12.790123456790125,0)" xlink:href="#bi"/><use transform="matrix(0.04938271604938272,0,0,0.04938271604938272,23.60493827160494,0)" xlink:href="#bi"/></g><g id="Q"><use transform="matrix(0.04938271604938272,0,0,0.04938271604938272,0,0)" xlink:href="#aR"/><use transform="matrix(0.04938271604938272,0,0,0.04938271604938272,5.8765432098765435,0)" xlink:href="#aP"/><use transform="matrix(0.04938271604938272,0,0,0.04938271604938272,15.753086419753087,0)" xlink:href="#aL"/><use transform="matrix(0.04938271604938272,0,0,0.04938271604938272,25.629629629629633,0)" xlink:href="#aW"/></g><g id="R"><use transform="matrix(0.04938271604938272,0,0,0.04938271604938272,0,0)" xlink:href="#aR"/><use transform="matrix(0.04938271604938272,0,0,0.04938271604938272,5.8765432098765435,0)" xlink:href="#be"/></g><path fill="#333" d="M135-194c52 0 70 43 70 98 0 56-19 99-73 100-30 1-46-15-58-35L72 0H24l1-261h50v104c11-23 29-37 60-37zM114-30c31 0 40-27 40-66 0-37-7-63-39-63s-41 28-41 65c0 36 8 64 40 64" id="bk"/><g id="S"><use transform="matrix(0.04938271604938272,0,0,0.04938271604938272,0,0)" xlink:href="#bi"/><use transform="matrix(0.04938271604938272,0,0,0.04938271604938272,10.814814814814815,0)" xlink:href="#aL"/><use transform="matrix(0.04938271604938272,0,0,0.04938271604938272,20.69135802469136,0)" xlink:href="#aR"/><use transform="matrix(0.04938271604938272,0,0,0.04938271604938272,26.567901234567902,0)" xlink:href="#aL"/><use transform="matrix(0.04938271604938272,0,0,0.04938271604938272,36.44444444444445,0)" xlink:href="#bk"/><use transform="matrix(0.04938271604938272,0,0,0.04938271604938272,47.25925925925927,0)" xlink:href="#aL"/><use transform="matrix(0.04938271604938272,0,0,0.04938271604938272,57.135802469135804,0)" xlink:href="#aV"/><use transform="matrix(0.04938271604938272,0,0,0.04938271604938272,67.01234567901236,0)" xlink:href="#aP"/></g><path fill="#333" d="M67-125c0 53 21 87 73 88 37 1 54-22 65-47l45 17C233-25 199 4 140 4 58 4 20-42 15-125 8-235 124-281 211-232c18 10 29 29 36 50l-46 12c-8-25-30-41-62-41-52 0-71 34-72 86" id="bl"/><g id="T"><use transform="matrix(0.04938271604938272,0,0,0.04938271604938272,0,0)" xlink:href="#bl"/><use transform="matrix(0.04938271604938272,0,0,0.04938271604938272,12.790123456790125,0)" xlink:href="#aS"/><use transform="matrix(0.04938271604938272,0,0,0.04938271604938272,19.703703703703706,0)" xlink:href="#aP"/><use transform="matrix(0.04938271604938272,0,0,0.04938271604938272,29.58024691358025,0)" xlink:href="#aL"/><use transform="matrix(0.04938271604938272,0,0,0.04938271604938272,39.4567901234568,0)" xlink:href="#aR"/><use transform="matrix(0.04938271604938272,0,0,0.04938271604938272,45.33333333333334,0)" xlink:href="#aP"/></g><g id="U"><use transform="matrix(0.04938271604938272,0,0,0.04938271604938272,0,0)" xlink:href="#aR"/><use transform="matrix(0.04938271604938272,0,0,0.04938271604938272,5.8765432098765435,0)" xlink:href="#be"/><use transform="matrix(0.04938271604938272,0,0,0.04938271604938272,16.691358024691358,0)" xlink:href="#bf"/><use transform="matrix(0.04938271604938272,0,0,0.04938271604938272,27.50617283950617,0)" xlink:href="#aS"/><use transform="matrix(0.04938271604938272,0,0,0.04938271604938272,34.41975308641975,0)" xlink:href="#bg"/><use transform="matrix(0.04938271604938272,0,0,0.04938271604938272,45.23456790123457,0)" xlink:href="#aL"/><use transform="matrix(0.04938271604938272,0,0,0.04938271604938272,55.111111111111114,0)" xlink:href="#aW"/><use transform="matrix(0.04938271604938272,0,0,0.04938271604938272,70.91358024691358,0)" xlink:href="#aP"/><use transform="matrix(0.04938271604938272,0,0,0.04938271604938272,80.79012345679013,0)" xlink:href="#bg"/><use transform="matrix(0.04938271604938272,0,0,0.04938271604938272,91.60493827160494,0)" xlink:href="#aR"/></g><g id="V"><use transform="matrix(0.04938271604938272,0,0,0.04938271604938272,0,0)" xlink:href="#ba"/><use transform="matrix(0.04938271604938272,0,0,0.04938271604938272,10.814814814814815,0)" xlink:href="#aQ"/><use transform="matrix(0.04938271604938272,0,0,0.04938271604938272,15.753086419753087,0)" xlink:href="#aL"/><use transform="matrix(0.04938271604938272,0,0,0.04938271604938272,25.629629629629633,0)" xlink:href="#bb"/><use transform="matrix(0.04938271604938272,0,0,0.04938271604938272,35.50617283950618,0)" xlink:href="#aP"/><use transform="matrix(0.04938271604938272,0,0,0.04938271604938272,45.38271604938272,0)" xlink:href="#aS"/></g><g id="W"><use transform="matrix(0.04938271604938272,0,0,0.04938271604938272,0,0)" xlink:href="#aR"/><use transform="matrix(0.04938271604938272,0,0,0.04938271604938272,5.8765432098765435,0)" xlink:href="#be"/></g><g id="X"><use transform="matrix(0.04938271604938272,0,0,0.04938271604938272,0,0)" xlink:href="#bi"/><use transform="matrix(0.04938271604938272,0,0,0.04938271604938272,10.814814814814815,0)" xlink:href="#aL"/><use transform="matrix(0.04938271604938272,0,0,0.04938271604938272,20.69135802469136,0)" xlink:href="#aR"/><use transform="matrix(0.04938271604938272,0,0,0.04938271604938272,26.567901234567902,0)" xlink:href="#aL"/><use transform="matrix(0.04938271604938272,0,0,0.04938271604938272,36.44444444444445,0)" xlink:href="#bk"/><use transform="matrix(0.04938271604938272,0,0,0.04938271604938272,47.25925925925927,0)" xlink:href="#aL"/><use transform="matrix(0.04938271604938272,0,0,0.04938271604938272,57.135802469135804,0)" xlink:href="#aV"/><use transform="matrix(0.04938271604938272,0,0,0.04938271604938272,67.01234567901236,0)" xlink:href="#aP"/></g><path fill="#333" d="M238-95c0 69-44 99-111 99C63 4 22-25 22-93v-155h51v151c-1 38 19 59 55 60 90 1 49-130 58-211h52v153" id="bm"/><g id="Y"><use transform="matrix(0.04938271604938272,0,0,0.04938271604938272,0,0)" xlink:href="#bm"/><use transform="matrix(0.04938271604938272,0,0,0.04938271604938272,12.790123456790125,0)" xlink:href="#ba"/><use transform="matrix(0.04938271604938272,0,0,0.04938271604938272,23.60493827160494,0)" xlink:href="#bi"/><use transform="matrix(0.04938271604938272,0,0,0.04938271604938272,34.41975308641975,0)" xlink:href="#aL"/><use transform="matrix(0.04938271604938272,0,0,0.04938271604938272,44.2962962962963,0)" xlink:href="#aR"/><use transform="matrix(0.04938271604938272,0,0,0.04938271604938272,50.17283950617284,0)" xlink:href="#aP"/></g><g id="Z"><use transform="matrix(0.04938271604938272,0,0,0.04938271604938272,0,0)" xlink:href="#bi"/><use transform="matrix(0.04938271604938272,0,0,0.04938271604938272,10.814814814814815,0)" xlink:href="#aL"/><use transform="matrix(0.04938271604938272,0,0,0.04938271604938272,20.69135802469136,0)" xlink:href="#aR"/><use transform="matrix(0.04938271604938272,0,0,0.04938271604938272,26.567901234567902,0)" xlink:href="#aP"/><use transform="matrix(0.04938271604938272,0,0,0.04938271604938272,36.44444444444445,0)" xlink:href="#aV"/></g><g id="aa"><use transform="matrix(0.04938271604938272,0,0,0.04938271604938272,0,0)" xlink:href="#aU"/><use transform="matrix(0.04938271604938272,0,0,0.04938271604938272,4.938271604938272,0)" xlink:href="#bg"/></g><g id="ab"><use transform="matrix(0.04938271604938272,0,0,0.04938271604938272,0,0)" xlink:href="#aV"/><use transform="matrix(0.04938271604938272,0,0,0.04938271604938272,9.876543209876544,0)" xlink:href="#bb"/><use transform="matrix(0.04938271604938272,0,0,0.04938271604938272,19.75308641975309,0)" xlink:href="#aV"/><use transform="matrix(0.04938271604938272,0,0,0.04938271604938272,29.629629629629633,0)" xlink:href="#aR"/><use transform="matrix(0.04938271604938272,0,0,0.04938271604938272,35.50617283950618,0)" xlink:href="#aP"/><use transform="matrix(0.04938271604938272,0,0,0.04938271604938272,45.38271604938272,0)" xlink:href="#aW"/></g><g id="ac"><use transform="matrix(0.04938271604938272,0,0,0.04938271604938272,0,0)" xlink:href="#aO"/><use transform="matrix(0.04938271604938272,0,0,0.04938271604938272,11.851851851851853,0)" xlink:href="#aP"/><use transform="matrix(0.04938271604938272,0,0,0.04938271604938272,21.7283950617284,0)" xlink:href="#aQ"/><use transform="matrix(0.04938271604938272,0,0,0.04938271604938272,26.666666666666668,0)" xlink:href="#aP"/><use transform="matrix(0.04938271604938272,0,0,0.04938271604938272,36.543209876543216,0)" xlink:href="#aM"/><use transform="matrix(0.04938271604938272,0,0,0.04938271604938272,46.41975308641976,0)" xlink:href="#aR"/><use transform="matrix(0.04938271604938272,0,0,0.04938271604938272,52.2962962962963,0)" xlink:href="#aP"/><use transform="matrix(0.04938271604938272,0,0,0.04938271604938272,62.17283950617284,0)" xlink:href="#bi"/></g><g id="ad"><use transform="matrix(0.04938271604938272,0,0,0.04938271604938272,0,0)" xlink:href="#aS"/><use transform="matrix(0.04938271604938272,0,0,0.04938271604938272,6.913580246913581,0)" xlink:href="#aP"/><use transform="matrix(0.04938271604938272,0,0,0.04938271604938272,16.790123456790127,0)" xlink:href="#aV"/><use transform="matrix(0.04938271604938272,0,0,0.04938271604938272,26.666666666666668,0)" xlink:href="#bf"/><use transform="matrix(0.04938271604938272,0,0,0.04938271604938272,37.48148148148149,0)" xlink:href="#aQ"/><use transform="matrix(0.04938271604938272,0,0,0.04938271604938272,42.41975308641976,0)" xlink:href="#aR"/></g><g id="ae"><use transform="matrix(0.04938271604938272,0,0,0.04938271604938272,0,0)" xlink:href="#aS"/><use transform="matrix(0.04938271604938272,0,0,0.04938271604938272,6.913580246913581,0)" xlink:href="#aP"/><use transform="matrix(0.04938271604938272,0,0,0.04938271604938272,16.790123456790127,0)" xlink:href="#aT"/><use transform="matrix(0.04938271604938272,0,0,0.04938271604938272,27.604938271604947,0)" xlink:href="#aU"/><use transform="matrix(0.04938271604938272,0,0,0.04938271604938272,32.543209876543216,0)" xlink:href="#aV"/><use transform="matrix(0.04938271604938272,0,0,0.04938271604938272,42.41975308641976,0)" xlink:href="#aR"/><use transform="matrix(0.04938271604938272,0,0,0.04938271604938272,48.296296296296305,0)" xlink:href="#aS"/><use transform="matrix(0.04938271604938272,0,0,0.04938271604938272,55.209876543209894,0)" xlink:href="#aL"/><use transform="matrix(0.04938271604938272,0,0,0.04938271604938272,65.08641975308643,0)" xlink:href="#aR"/><use transform="matrix(0.04938271604938272,0,0,0.04938271604938272,70.96296296296298,0)" xlink:href="#aU"/><use transform="matrix(0.04938271604938272,0,0,0.04938271604938272,75.90123456790124,0)" xlink:href="#be"/><use transform="matrix(0.04938271604938272,0,0,0.04938271604938272,86.71604938271605,0)" xlink:href="#bg"/></g><path fill="#3a414a" d="M233-177c-1 41-23 64-60 70L243 0h-38l-65-103H63V0H30v-248c88 3 205-21 203 71zM63-129c60-2 137 13 137-47 0-61-80-42-137-45v92" id="bn"/><g id="af"><use transform="matrix(0.06172839506172839,0,0,0.06172839506172839,0,0)" xlink:href="#bn"/><use transform="matrix(0.06172839506172839,0,0,0.06172839506172839,15.987654320987653,0)" xlink:href="#as"/><use transform="matrix(0.06172839506172839,0,0,0.06172839506172839,28.333333333333332,0)" xlink:href="#aG"/><use transform="matrix(0.06172839506172839,0,0,0.06172839506172839,39.44444444444444,0)" xlink:href="#ay"/><use transform="matrix(0.06172839506172839,0,0,0.06172839506172839,51.79012345679012,0)" xlink:href="#ar"/><use transform="matrix(0.06172839506172839,0,0,0.06172839506172839,56.666666666666664,0)" xlink:href="#aF"/><use transform="matrix(0.06172839506172839,0,0,0.06172839506172839,62.839506172839506,0)" xlink:href="#aG"/></g><g id="ag"><use transform="matrix(0.04938271604938272,0,0,0.04938271604938272,0,0)" xlink:href="#aS"/><use transform="matrix(0.04938271604938272,0,0,0.04938271604938272,6.913580246913581,0)" xlink:href="#aP"/><use transform="matrix(0.04938271604938272,0,0,0.04938271604938272,16.790123456790127,0)" xlink:href="#aV"/><use transform="matrix(0.04938271604938272,0,0,0.04938271604938272,26.666666666666668,0)" xlink:href="#bf"/><use transform="matrix(0.04938271604938272,0,0,0.04938271604938272,37.48148148148149,0)" xlink:href="#aQ"/><use transform="matrix(0.04938271604938272,0,0,0.04938271604938272,42.41975308641976,0)" xlink:href="#aR"/><use transform="matrix(0.04938271604938272,0,0,0.04938271604938272,48.296296296296305,0)" xlink:href="#aV"/></g><g id="ah"><use transform="matrix(0.04938271604938272,0,0,0.04938271604938272,0,0)" xlink:href="#aO"/><use transform="matrix(0.04938271604938272,0,0,0.04938271604938272,11.851851851851853,0)" xlink:href="#aR"/><use transform="matrix(0.04938271604938272,0,0,0.04938271604938272,17.728395061728396,0)" xlink:href="#aL"/><use transform="matrix(0.04938271604938272,0,0,0.04938271604938272,27.60493827160494,0)" xlink:href="#aR"/><use transform="matrix(0.04938271604938272,0,0,0.04938271604938272,33.48148148148148,0)" xlink:href="#aV"/></g><g id="ai"><use transform="matrix(0.04938271604938272,0,0,0.04938271604938272,0,0)" xlink:href="#aV"/><use transform="matrix(0.04938271604938272,0,0,0.04938271604938272,9.876543209876544,0)" xlink:href="#aP"/><use transform="matrix(0.04938271604938272,0,0,0.04938271604938272,19.75308641975309,0)" xlink:href="#aQ"/><use transform="matrix(0.04938271604938272,0,0,0.04938271604938272,24.69135802469136,0)" xlink:href="#aP"/><use transform="matrix(0.04938271604938272,0,0,0.04938271604938272,34.567901234567906,0)" xlink:href="#aM"/><use transform="matrix(0.04938271604938272,0,0,0.04938271604938272,44.44444444444445,0)" xlink:href="#aR"/><use transform="matrix(0.04938271604938272,0,0,0.04938271604938272,50.320987654320994,0)" xlink:href="#aP"/><use transform="matrix(0.04938271604938272,0,0,0.04938271604938272,60.19753086419754,0)" xlink:href="#bi"/></g><g id="aj"><use transform="matrix(0.06172839506172839,0,0,0.06172839506172839,0,0)" xlink:href="#aG"/><use transform="matrix(0.06172839506172839,0,0,0.06172839506172839,11.11111111111111,0)" xlink:href="#as"/><use transform="matrix(0.06172839506172839,0,0,0.06172839506172839,23.45679012345679,0)" xlink:href="#ar"/><use transform="matrix(0.06172839506172839,0,0,0.06172839506172839,28.333333333333336,0)" xlink:href="#as"/><use transform="matrix(0.06172839506172839,0,0,0.06172839506172839,40.67901234567901,0)" xlink:href="#aI"/><use transform="matrix(0.06172839506172839,0,0,0.06172839506172839,51.79012345679013,0)" xlink:href="#aF"/><use transform="matrix(0.06172839506172839,0,0,0.06172839506172839,57.96296296296297,0)" xlink:href="#as"/><use transform="matrix(0.06172839506172839,0,0,0.06172839506172839,70.30864197530865,0)" xlink:href="#aq"/></g><g id="ak"><use transform="matrix(0.06172839506172839,0,0,0.06172839506172839,0,0)" xlink:href="#aG"/><use transform="matrix(0.06172839506172839,0,0,0.06172839506172839,11.11111111111111,0)" xlink:href="#aF"/><use transform="matrix(0.06172839506172839,0,0,0.06172839506172839,17.28395061728395,0)" xlink:href="#av"/><use transform="matrix(0.06172839506172839,0,0,0.06172839506172839,29.629629629629626,0)" xlink:href="#aF"/><use transform="matrix(0.06172839506172839,0,0,0.06172839506172839,35.80246913580247,0)" xlink:href="#aG"/></g><path fill="#333" d="M140-251c80 0 125 45 125 126 0 70-33 111-92 124 6 28 34 38 68 31l-1 36C177 83 129 55 120 2 51-6 15-50 15-125c0-81 44-126 125-126zm-1 214c52 0 73-35 73-88 0-50-21-86-72-86-52 0-73 35-73 86s22 88 72 88" id="bo"/><g id="al"><use transform="matrix(0.04938271604938272,0,0,0.04938271604938272,0,0)" xlink:href="#bo"/><use transform="matrix(0.04938271604938272,0,0,0.04938271604938272,13.827160493827162,0)" xlink:href="#bf"/><use transform="matrix(0.04938271604938272,0,0,0.04938271604938272,24.641975308641975,0)" xlink:href="#aU"/><use transform="matrix(0.04938271604938272,0,0,0.04938271604938272,29.58024691358025,0)" xlink:href="#aR"/></g><g id="am"><use transform="matrix(0.04938271604938272,0,0,0.04938271604938272,0,0)" xlink:href="#aS"/><use transform="matrix(0.04938271604938272,0,0,0.04938271604938272,6.913580246913581,0)" xlink:href="#aP"/><use transform="matrix(0.04938271604938272,0,0,0.04938271604938272,16.790123456790127,0)" xlink:href="#aV"/><use transform="matrix(0.04938271604938272,0,0,0.04938271604938272,26.666666666666668,0)" xlink:href="#bf"/><use transform="matrix(0.04938271604938272,0,0,0.04938271604938272,37.48148148148149,0)" xlink:href="#aQ"/><use transform="matrix(0.04938271604938272,0,0,0.04938271604938272,42.41975308641976,0)" xlink:href="#aR"/><use transform="matrix(0.04938271604938272,0,0,0.04938271604938272,48.296296296296305,0)" xlink:href="#aV"/></g><g id="an"><use transform="matrix(0.04938271604938272,0,0,0.04938271604938272,0,0)" xlink:href="#aU"/><use transform="matrix(0.04938271604938272,0,0,0.04938271604938272,4.938271604938272,0)" xlink:href="#bg"/></g><g id="ao"><use transform="matrix(0.04938271604938272,0,0,0.04938271604938272,0,0)" xlink:href="#bi"/><use transform="matrix(0.04938271604938272,0,0,0.04938271604938272,10.814814814814815,0)" xlink:href="#aL"/><use transform="matrix(0.04938271604938272,0,0,0.04938271604938272,20.69135802469136,0)" xlink:href="#aR"/><use transform="matrix(0.04938271604938272,0,0,0.04938271604938272,26.567901234567902,0)" xlink:href="#aL"/><use transform="matrix(0.04938271604938272,0,0,0.04938271604938272,36.44444444444445,0)" xlink:href="#bk"/><use transform="matrix(0.04938271604938272,0,0,0.04938271604938272,47.25925925925927,0)" xlink:href="#aL"/><use transform="matrix(0.04938271604938272,0,0,0.04938271604938272,57.135802469135804,0)" xlink:href="#aV"/><use transform="matrix(0.04938271604938272,0,0,0.04938271604938272,67.01234567901236,0)" xlink:href="#aP"/></g></defs></g></svg>
